<?xml version="1.0" encoding="UTF-8"?>
<svg width="300px" height="300px" viewBox="0 0 300 300" version="1.1" xmlns="http://www.w3.org/2000/svg" xmlns:xlink="http://www.w3.org/1999/xlink">
    <title>LogoLBSU</title>
    <g id="LogoLBSU" stroke="none" stroke-width="1" fill="none" fill-rule="evenodd">
        <g id="Group" transform="translate(1.000000, 0.000000)" fill="#ffffff" fill-rule="nonzero">
            <path d="M55,14.7349403 C51.0361798,9.83938371 52.4279935,4.30755449 51.947777,5.07108167 C49.2129853,9.42767788 53.2663374,16 53.2663374,16 L55,14.7349403 Z" id="e2e5sfoaykbz5"></path>
            <path d="M118.297843,201.421181 C117.729171,201.923277 116.977074,202.169116 116.219826,202.100426 L108.75218,202.100426 L115.096374,192.758977 L115.096374,191.736458 L109.442405,182.628728 L115.691143,182.628728 C116.476007,182.577075 117.240662,182.889939 117.761817,183.475959 C118.239101,184.031041 118.701698,185.258065 119.156953,187.127815 L120.706287,187.127815 L120.706287,181 L105.46994,181 L105.46994,181.854534 L112.394218,193.299452 L105,204.145466 L105,205 L120.640202,205 L121,198.309799 L119.347866,198.309799 C119.076182,199.92392 118.723726,200.961047 118.297843,201.421181 Z" id="e2e5sfoaykbz6"></path>
            <polygon id="e2e5sfoaykbz7" points="81.8695652 194.911595 86.9565217 195.03243 86.9565217 193.552199 81.8695652 193.695691 81.8695652 187.215904 87.3913043 187.359396 87.673913 190.131053 88.5652174 190.131053 88.6956522 186 78 186 78 186.75522 79.7391304 187.072412 79.7391304 201.927588 78 202.24478 78 203 88.9130435 203 89 198.800977 88.1956522 198.800977 87.6086957 201.685917 81.8695652 201.784096"></polygon>
            <path d="M91.0220588,203.395397 L92.0367647,203.578452 C92.0367647,206.126568 91.5955882,208.821127 90.3088235,208.821127 C90.2059838,208.82756 90.1028397,208.82756 90,208.821127 L90,209.860876 C90.1744537,209.952677 90.3688632,210.000448 90.5661765,210 C91.9338235,210 92.6544118,208.132843 92.7205882,203.658996 L94.7720588,203.658996 L94.7720588,209.260457 L93.7426471,209.43619 L93.7426471,209.860876 L97,209.860876 L97,209.43619 L95.9705882,209.260457 L95.9705882,203.60774 L97,203.424686 L97,203 L91.0220588,203 L91.0220588,203.395397 Z" id="e2e5sfoaykbz8"></path>
            <rect id="e2e5sfoaykbz9" x="94" y="197" width="10" height="1"></rect>
            <rect id="e2e5sfoaykbz10" x="94" y="193" width="10" height="1"></rect>
            <polygon id="e2e5sfoaykbz11" points="128.869565 194.911595 133.956522 195.03243 133.956522 193.552199 128.869565 193.695691 128.869565 187.215904 134.391304 187.359396 134.673913 190.131053 135.565217 190.131053 135.695652 186 125 186 125 186.75522 126.73913 187.072412 126.73913 201.927588 125 202.24478 125 203 135.913043 203 136 198.800977 135.195652 198.800977 134.608696 201.685917 128.869565 201.784096"></polygon>
            <path d="M143.021956,205.455497 C143.021956,203.989529 142.323353,203 141.058882,203 C140.314165,203.060506 139.613848,203.395443 139.081836,203.94555 L139.130739,203.131937 L138.886228,203.065969 L137,203.271204 L137,203.696335 L137.992016,203.806283 L137.992016,209.420942 L137.013972,209.574869 L137.013972,210 L139.983034,210 L139.983034,209.574869 L139.130739,209.420942 L139.130739,205.756021 C139.130739,205.023037 139.081836,204.451309 139.081836,204.451309 C139.549745,204.152781 140.085171,203.990827 140.632735,203.982199 C141.512974,203.982199 141.89022,204.605236 141.89022,205.741361 L141.89022,209.406283 L141.037924,209.560209 L141.037924,209.98534 L144,209.98534 L144,209.560209 L143.021956,209.406283 L143.021956,205.455497 Z" id="e2e5sfoaykbz12"></path>
            <polygon id="e2e5sfoaykbz13" points="113.242525 209.747452 113.242525 215 114 215 114 209 113.847176 209 112 209.747452 112.07309 210.012458"></polygon>
            <path d="M107,177.660743 L107,178 L109.385455,178 C110.236364,178 111,177.53958 111,176.546042 C110.977432,175.915669 110.520436,175.411625 109.952727,175.390953 L109.952727,175.390953 C110.437819,175.271474 110.779057,174.787571 110.767273,174.235864 C110.767273,173.484653 110.323636,173 109.363636,173 L107,173 L107,173.306947 L107.669091,173.444265 L107.669091,177.612278 L107,177.660743 Z M108.454545,173.411955 L109.181818,173.411955 C109.402644,173.380842 109.624137,173.463763 109.782947,173.636997 C109.941756,173.810231 110.020393,174.054702 109.996364,174.300485 C109.996686,174.632262 109.839013,174.93949 109.581818,175.108239 L108.476364,175.108239 L108.454545,173.411955 Z M108.454545,175.600969 L109.363636,175.600969 C109.586785,175.564354 109.812599,175.644813 109.974923,175.818775 C110.137248,175.992737 110.217706,176.240508 110.192727,176.489499 C110.20959,176.754036 110.123848,177.013963 109.957106,177.203787 C109.790364,177.393611 109.558522,177.495229 109.32,177.483037 L108.454545,177.483037 L108.454545,175.600969 Z" id="e2e5sfoaykbz14"></path>
            <path d="M114.274336,173.492284 C114.823009,173.492284 115.159292,173.907648 115.79646,173.984567 L116,173.215374 C115.533571,173.106177 115.056679,173.034088 114.575221,173 C113.035398,173 112,174.107638 112,175.584489 C112,177.06134 112.823009,177.999755 114.309735,177.999755 C114.903796,178.007522 115.481424,177.830161 115.938053,177.49978 L115.938053,177.153643 C115.530068,177.306568 115.090322,177.385107 114.646018,177.384401 C113.566372,177.384401 112.973451,176.515213 112.973451,175.322963 C112.946903,174.492235 113.39823,173.492284 114.274336,173.492284 Z" id="e2e5sfoaykbz15"></path>
            <path d="M119.163206,173 C117.989124,173 117,173.992182 117,175.584288 C117,176.991801 117.844374,177.999366 119.195373,177.999366 C119.775249,178.011995 120.342387,177.835704 120.803704,177.499429 L120.803704,177.161011 C120.421993,177.305999 120.016133,177.384156 119.605497,177.391751 C118.584207,177.391751 117.956957,176.568778 117.924791,175.42277 L120.988663,175.42277 C121.093204,173.876812 120.473996,173 119.163206,173 Z M117.908707,174.984364 C117.997166,174.069095 118.447498,173.492245 119.131039,173.492245 C119.935205,173.492245 120.096038,174.161391 120.10408,174.922833 L117.908707,174.984364 Z" id="e2e5sfoaykbz16"></path>
            <path d="M187.737547,82 C187.912516,82 188.087484,82 188.262453,82 C191.521876,81.8572192 194.06991,79.1348923 193.998537,75.8715513 C193.927164,72.6082103 191.262545,70 188,70 C184.737455,70 182.072836,72.6082103 182.001463,75.8715513 C181.93009,79.1348923 184.478124,81.8572192 187.737547,82 Z M187.679224,71.4530329 L188.408261,72.3282999 C188.408261,72.3282999 184.420429,73.3786203 184.157976,75.6470205 C184.187138,75.6470205 184.362106,71.4530329 187.679224,71.4530329 Z" id="e2e5sfoaykbz17"></path>
            <path d="M174.999956,53 C176.213325,53 177.307218,52.2690843 177.771554,51.1480777 C178.235891,50.0270703 177.979227,48.7367361 177.121246,47.8787545 C176.263264,47.0207728 174.97293,46.7641095 173.851922,47.228446 C172.730916,47.6927819 172,48.7866749 172,50.0000438 C172,51.6568739 173.343126,53 174.999956,53 Z M175.152496,47.9879667 L175.595589,48.4964338 C175.595589,48.4964338 173.292959,49.1065944 173.140419,50.4068175 C173.140419,50.4068175 173.242113,47.9879667 175.137969,47.9879667 L175.152496,47.9879667 Z" id="e2e5sfoaykbz18"></path>
            <path d="M207.007307,66.0000088 C205.793281,65.997078 204.697161,66.7261265 204.230535,67.8468952 C203.76391,68.9676646 204.018777,70.2591865 204.876184,71.1186733 C205.733591,71.9781601 207.024494,72.2361574 208.146393,71.7722508 C209.268292,71.3083443 210,70.2139962 210,68.999969 C210,67.3459745 208.6613,66.0040222 207.007307,66.0000088 Z M205.14777,69.406742 C205.14777,69.406742 205.249463,66.9806313 207.167111,66.9806313 L207.60294,67.4890976 C207.60294,67.4890976 205.30031,68.0992572 205.14777,69.406742 Z" id="e2e5sfoaykbz19"></path>
            <path d="M86.9424704,270.625203 C88.7766497,271.416628 90.3265651,270.932979 90.8680203,269.37944 C91.4094755,267.825901 90.5093063,266.638763 89.6632826,265.561545 C88.9864636,264.667527 88.3096447,263.802821 88.7021997,262.813539 C89.0947547,261.824257 89.78511,261.619073 90.7326565,262.029441 C91.234553,262.246695 91.6938707,262.564974 92.0862944,262.967427 L91.6192893,264.792103 L92.0930626,264.997287 L93,262.798883 C92.4866748,262.142366 91.8275418,261.638018 91.0846024,261.33328 C89.4331641,260.600479 88.0118443,261.11344 87.4974619,262.505762 C86.9221658,264.059302 87.7952623,265.114536 88.6142132,266.16977 C89.4331641,267.225004 90.0761421,267.979789 89.6362098,269.181584 C89.2639594,270.185522 88.2216582,270.361394 87.1996616,269.914385 C86.7117218,269.718809 86.2550017,269.44189 85.8460237,269.093648 L86.2927242,267.034476 L85.8392555,266.836619 L85,269.152272 C85.5198565,269.815786 86.1888541,270.323072 86.9424704,270.625203 Z" id="e2e5sfoaykbz20"></path>
            <path d="M95.4783976,273.993147 C96.3102945,274.196165 97.1934283,274.118217 97.968532,273.773362 C97.8522651,274.296607 98.2119575,274.809278 98.7769235,274.925566 C99.1347161,275.024811 99.5162336,275.024811 99.8740262,274.925566 L99.9822929,274.59922 L99.5708794,274.479337 C99.1739014,274.366115 99.1594659,274.11969 99.2605148,273.813323 L100.704071,269.444271 L101,268.738297 L100.754595,268.598434 L98.5892612,268.192165 L98.4593411,268.571793 L99.4987016,268.971401 L98.4809945,272.055046 C98.2861144,272.647799 98.1273232,273.300492 98.1273232,273.300492 C97.5249085,273.41879 96.9001763,273.398201 96.3084424,273.240551 C95.9080072,273.141519 95.5761798,272.883059 95.4031595,272.535429 C95.2301399,272.187799 95.2339069,271.787121 95.4134376,271.442313 L96.5899359,267.885799 L96.7631626,267.546131 L96.5177581,267.406269 L94.3524238,267 L94.2297216,267.379628 L95.269082,267.779236 L94.1286726,271.229189 C93.7461302,272.534576 94.2225038,273.65348 95.4783976,273.993147 Z" id="e2e5sfoaykbz21"></path>
            <path d="M104.52725,276.519747 L103.593999,276.116904 L104.328843,272.301738 C104.468463,271.598736 104.571341,270.793049 104.571341,270.793049 C105.09644,270.604611 105.656212,270.555825 106.202694,270.650869 C107.224127,270.887836 107.473974,271.693523 107.26087,272.775671 L106.45989,276.78831 L105.460502,276.740916 L105.364972,277.199052 L108.57624,277.941548 L108.67177,277.483412 L107.738518,277.080569 L108.627679,272.657188 C108.681055,272.356998 108.717861,272.053678 108.737906,271.748815 C109.281283,271.561432 109.859224,271.52074 110.420698,271.630332 C111.324556,271.835703 111.68463,272.586098 111.471525,273.652449 L110.6485,277.751975 L109.649112,277.751975 L109.553582,278.210111 L112.90447,279 L113,278.541864 L111.927128,278.107425 L112.794244,273.778831 C113.110227,272.199052 112.581139,271.022117 111.214329,270.706161 C110.325885,270.530201 109.408789,270.740428 108.664421,271.290679 C108.518406,270.505619 107.93103,269.902656 107.194734,269.781991 C106.32804,269.630819 105.439281,269.800718 104.674219,270.263823 L104.902021,269.402844 L104.644825,269.268562 L102.440294,269 L102.344764,269.458136 L103.439682,269.837283 L102.234538,275.879937 L101.09553,275.800948 L101,276.259084 L104.350888,277.048973 L104.52725,276.519747 Z" id="e2e5sfoaykbz22"></path>
            <path d="M117.437956,279.505647 L116.481752,279.227628 L116.956204,275.814944 C117.043796,275.196351 117.087591,274.473501 117.087591,274.473501 C117.594722,274.271545 118.145934,274.190428 118.693431,274.237185 C119.715328,274.362294 120.036496,275.050391 119.89781,276.016507 L119.40146,279.596003 L118.408759,279.630756 L118.350365,280.040834 L121.583942,280.450912 L121.642336,280.040834 L120.693431,279.755864 L121.240876,275.807993 C121.276745,275.540672 121.291385,275.271156 121.284672,275.001738 C121.808035,274.794151 122.377833,274.715275 122.941606,274.772372 C123.854015,274.883579 124.262774,275.516073 124.131387,276.468288 L123.620438,280.13119 L122.627737,280.165943 L122.569343,280.576021 L125.941606,281 L126,280.589922 L124.912409,280.291051 L125.445255,276.433536 C125.642336,275.04344 125.036496,274.028671 123.664234,273.854909 C122.770343,273.760547 121.873982,274.010849 121.175182,274.549957 C120.976356,273.872862 120.356244,273.384953 119.620438,273.326672 C118.750747,273.263444 117.884082,273.481389 117.160584,273.945265 L117.328467,273.173762 L117.058394,273.069505 L114.868613,273 L114.810219,273.410078 L115.919708,273.660295 L115.189781,279.053866 L114.058394,279.053866 L114,279.463944 L117.379562,279.887924 L117.437956,279.505647 Z" id="e2e5sfoaykbz23"></path>
            <path d="M130.653135,280.685998 C131.464385,280.755788 132.27064,280.507758 132.890702,279.99765 C132.898497,280.551107 133.365214,280.995806 133.938225,280.995755 C134.307369,281.01985 134.675909,280.941005 135,280.7686 L135,280.410659 L134.57244,280.410659 C134.166257,280.376241 134.087871,280.135319 134.116375,279.804912 L134.372911,276.645394 C134.501179,275.048426 133.938225,274.132923 132.320621,274.00902 C131.442234,273.956388 130.565509,274.134805 129.783762,274.525282 L129.748132,274.972708 C130.423178,274.840891 131.112482,274.790028 131.800422,274.821271 C133.040348,274.910757 133.225624,275.50962 133.140112,276.445773 L133.083104,277.134121 C132.461565,277.091032 131.837629,277.091032 131.21609,277.134121 C129.741006,277.271791 129.078287,277.967023 129.007027,278.985778 C128.964059,279.428842 129.119574,279.868468 129.434246,280.193484 C129.748917,280.518499 130.192615,280.697783 130.653135,280.685998 Z M131.508256,277.732984 C132.014133,277.649978 132.528342,277.624565 133.040348,277.657266 L132.961962,278.593419 C132.919206,279.157865 132.961962,279.536457 132.961962,279.536457 C132.475837,279.807803 131.919504,279.939166 131.35861,279.915048 C130.646009,279.85998 130.282583,279.440088 130.332465,278.868759 C130.383819,278.257996 130.889653,277.775229 131.522508,277.732984 L131.508256,277.732984 Z" id="e2e5sfoaykbz24"></path>
            <path d="M143.424147,280.999351 C144.292286,281.014379 145.139835,280.767926 145.82401,280.30151 L145.82401,279.847913 C145.212608,280.056218 144.560393,280.158156 143.904119,280.147984 C142.304211,280.147984 141.43226,278.898848 141.456259,277.237985 C141.456259,276.079568 142.128221,274.690863 143.432146,274.70482 C144.232101,274.70482 144.792069,275.297985 145.680018,275.402662 L146,274.321007 C145.306668,274.166312 144.60057,274.058984 143.88812,274 C141.600251,274 140.024341,275.500359 140.000342,277.558992 C139.976343,279.617625 141.216273,280.971438 143.424147,280.999351 Z" id="e2e5sfoaykbz25"></path>
            <path d="M148.16946,279.532446 C148.16946,280.942227 149.018622,281.957269 150.404097,281.957269 C151.292953,281.927245 152.14111,281.597194 152.795158,281.026814 C152.827231,281.584136 153.322912,282.01568 153.912477,281.999563 C154.299396,282.000078 154.677812,281.892157 155,281.689411 L155,281.294672 L154.560521,281.294672 C154.128492,281.294672 154.031657,281.047961 154.031657,280.709613 L154.031657,275.867015 L154.083799,275.070489 L153.800745,275.007049 L151.566108,275.204418 L151.566108,275.620304 L152.72067,275.733086 L152.72067,279.137707 C152.72067,279.800304 152.772812,280.505195 152.772812,280.505195 C152.214504,280.79348 151.591178,280.950616 150.955307,280.963374 C149.845438,280.963374 149.465549,280.173896 149.465549,279.391468 L149.465549,275.458179 L149.52514,275.06344 L149.234637,275 L147,275.197369 L147,275.613255 L148.154562,275.726037 L148.16946,279.532446 Z" id="e2e5sfoaykbz26"></path>
            <path d="M157.129412,275.168048 L157.447059,280.39139 L156.374118,280.605407 L156.374118,281 L159.656471,280.826112 L159.656471,280.42483 L158.696471,280.32451 L158.498824,277.020629 C158.498824,276.418708 158.364706,275.729842 158.364706,275.729842 C158.807212,275.452419 159.312774,275.278236 159.84,275.221552 C160.842353,275.168048 161.251765,275.763282 161.329412,276.699604 L161.534118,280.170686 L160.602353,280.371326 L160.602353,280.772607 L163.750588,280.598719 L163.750588,280.204126 L162.797647,280.103806 L162.564706,276.271571 C162.547545,276.012462 162.507404,275.755181 162.444706,275.502449 C162.904575,275.21958 163.430394,275.047392 163.976471,275.000848 C164.865882,274.947344 165.388235,275.475697 165.430588,276.398644 L165.649412,279.943293 L164.710588,280.150622 L164.710588,280.545215 L168,280.364638 L168,279.970045 L166.912941,279.876413 L166.687059,276.137811 C166.602353,274.800207 165.832941,273.930765 164.491765,274.004333 C163.625732,274.073931 162.825073,274.468884 162.268235,275.101168 C161.947119,274.499756 161.267533,274.148545 160.56,274.21835 C159.721698,274.307148 158.940138,274.663251 158.343529,275.22824 L158.343529,274.499246 L158.068235,274.445742 L156,274.753391 L156,275.147984 L157.129412,275.168048 Z" id="e2e5sfoaykbz27"></path>
            <polygon id="e2e5sfoaykbz28" points="173.317771 279.562963 173.370482 280 177 279.548148 176.939759 279.111111 175.77259 279.096296 174.46988 269.02963 174.176205 269 172 269.488889 172.052711 269.925926 173.23494 269.918519 174.439759 279.266667"></polygon>
            <path d="M180.154428,273.996879 C181.454644,273.797538 181.787257,274.306201 181.961123,275.254788 L182.089633,275.94217 C181.438875,276.034462 180.796935,276.172349 180.169546,276.3546 C178.657667,276.835767 178.204104,277.653752 178.385529,278.65733 C178.451824,279.097426 178.722135,279.490663 179.128154,279.73767 C179.534172,279.984676 180.037054,280.061821 180.509719,279.949608 C181.359252,279.82974 182.1211,279.406664 182.62635,278.774185 C182.794845,279.29441 183.387369,279.59881 183.964363,279.461567 C184.352161,279.404828 184.712648,279.244521 185,279.001021 L184.931965,278.650456 L184.493521,278.71232 C184.062635,278.781059 183.919006,278.561096 183.858531,278.238027 L183.284017,275.117312 C182.989201,273.543207 182.180346,272.780212 180.471922,273.055165 C179.554427,273.205381 178.699602,273.580957 178,274.141229 L178.075594,274.581154 C178.74058,274.312061 179.438437,274.115922 180.154428,273.996879 Z M182.331533,277.43379 C182.383167,277.744165 182.453832,278.051675 182.543197,278.354882 C182.112551,278.732255 181.572249,278.989831 180.985961,279.097254 C180.695757,279.183612 180.378275,279.147269 180.120664,278.998203 C179.863054,278.849136 179.692385,278.60301 179.655508,278.327386 C179.547785,277.716563 179.955571,277.127987 180.607991,276.952622 C181.091604,276.756601 181.599123,276.613539 182.11987,276.526445 L182.331533,277.43379 Z" id="e2e5sfoaykbz29"></path>
            <path d="M185.305044,272.011994 L186.281825,275.939107 C186.642114,277.429473 187.795036,278.241722 189.220176,277.936197 C190.139239,277.705086 190.939725,277.176689 191.477982,276.445832 C191.680209,277.011501 192.331338,277.322794 192.943155,277.146303 C193.346702,277.056232 193.713698,276.859568 194,276.579964 L193.91193,276.199921 L193.447558,276.304247 C192.999199,276.401121 192.831065,276.170114 192.742994,275.819878 L191.510008,270.834605 L191.365893,270 L191.045637,270 L188.739792,270.745183 L188.843875,271.177389 L190.084868,271.028352 L190.94956,274.538164 C191.117694,275.223732 191.357886,275.931655 191.357886,275.931655 C190.851721,276.361478 190.237873,276.666357 189.572458,276.818423 C189.127418,276.92553 188.654263,276.843664 188.280312,276.594852 C187.906362,276.34604 187.670029,275.955843 187.634908,275.529257 L186.634107,271.475462 L186.634107,271.05816 L186.313851,271.05816 L184,271.803342 L184.104083,272.235549 L185.305044,272.011994 Z" id="e2e5sfoaykbz30"></path>
            <path d="M197.843989,275.880558 C198.650997,275.609628 199.314973,275.00261 199.678823,274.203121 C199.786493,274.478285 199.994862,274.69721 200.257706,274.81133 C200.520551,274.925451 200.816138,274.925331 201.078898,274.811 C201.441716,274.690114 201.762191,274.459878 202,274.149259 L201.889468,273.77222 L201.469445,273.910724 C201.064161,274.041533 200.894678,273.818388 200.784146,273.464434 L197.910308,264 L197.622924,264 L195.611238,264.900275 L195.743876,265.331176 L196.871305,265.084947 L197.821882,268.239759 C197.335352,268.105437 196.821129,268.1296 196.348119,268.309011 C194.329064,268.978446 193.518494,270.902111 194.284851,273.433655 C194.808037,275.180343 196.2818,276.3961 197.843989,275.880558 Z M196.731298,269.047698 C197.157726,268.904022 197.613313,268.88276 198.050315,268.986141 L199.037737,272.248677 C199.244063,272.941197 199.465128,273.518296 199.516709,273.641411 C199.163602,274.090782 198.699975,274.431268 198.175585,274.626328 C196.908149,275.049534 195.920728,274.103091 195.434386,272.494906 C194.948044,270.886722 195.360698,269.501683 196.731298,269.047698 Z" id="e2e5sfoaykbz31"></path>
            <path d="M207.019394,271.718163 C207.840721,271.412563 208.5345,270.874746 209,270.182797 L208.808081,269.760219 C208.336972,270.165046 207.794473,270.493677 207.203637,270.732148 C205.729697,271.309671 204.324849,270.598332 203.603233,269.133396 L208.032727,267.400827 C207.265051,265.287938 205.867879,264.527298 203.987071,265.287938 C202.275152,265.949976 201.446061,267.78819 202.405657,269.851778 C203.242425,271.647734 205.069495,272.478803 207.019394,271.718163 Z M204.225051,265.921804 C205.391919,265.464012 206.021414,266.245781 206.528081,267.224753 L203.388283,268.534744 C202.927677,267.309268 203.234748,266.309167 204.225051,265.921804 Z" id="e2e5sfoaykbz32"></path>
            <path d="M186.006771,196.000023 C185.601711,195.997286 185.235011,196.239182 185.078101,196.612625 C184.921191,196.986069 185.00507,197.417284 185.290525,197.70468 C185.575979,197.992077 186.006616,198.078877 186.381116,197.924502 C186.755614,197.770128 187,197.405077 187,197 C187,196.450359 186.556407,196.003737 186.006771,196.000023 Z" id="e2e5sfoaykbz33"></path>
            <path d="M167.001216,208.520001 C167.001216,208.647305 167.038022,208.769395 167.103538,208.859411 C167.169053,208.949429 167.257911,209 167.350564,209 L204.636097,209 C204.837075,209 205,208.776143 205,208.5 C205,208.22386 204.837075,208 204.636097,208 L167.350564,208 C167.252639,207.999535 167.159067,208.055559 167.092647,208.154425 C167.026226,208.253291 166.993056,208.385922 167.001216,208.520001 Z" id="e2e5sfoaykbz34"></path>
            <path d="M184.714583,115.954672 C184.936706,115.83998 185.047542,115.587902 184.980649,115.349552 C179.696277,96.5835645 165.025675,84 148.5,84 C131.974325,84 117.303723,96.6127268 112.019351,115.349552 C111.952458,115.587902 112.063294,115.83998 112.285417,115.954672 C117.661743,118.620823 121.054674,124.049487 121.054674,129.985419 C121.054674,135.921351 117.661743,141.350015 112.285417,144.016166 C112.064444,144.128183 111.953389,144.377713 112.019351,144.613995 C117.303723,163.387273 131.974325,176 148.5,176 C165.025675,176 179.696277,163.387273 184.980649,144.613995 C185.046611,144.377713 184.935556,144.128183 184.714583,144.016166 C179.338257,141.350015 175.945326,135.921351 175.945326,129.985419 C175.945326,124.049487 179.338257,118.620823 184.714583,115.954672 Z M173.199824,129.989064 C173.228224,136.270581 176.484024,142.109263 181.846979,145.496157 C179.548542,153.075367 175.18155,159.885157 169.22361,165.180759 C163.104085,170.488311 155.920294,173.29519 148.529563,173.29519 C141.138832,173.29519 133.925478,170.488311 127.835515,165.180759 C121.877576,159.885157 117.510584,153.075367 115.212146,145.496157 C120.597534,142.126412 123.860627,136.272798 123.860627,129.981774 C123.860627,123.690749 120.597534,117.837135 115.212146,114.46739 C117.509536,106.88771 121.876695,100.077657 127.835515,94.7827879 C133.955041,89.4752358 141.138832,86.6683572 148.529563,86.6683572 C155.920294,86.6683572 163.133648,89.4752358 169.22361,94.7827879 C175.18243,100.077657 179.54959,106.88771 181.846979,114.46739 C176.470823,117.862691 173.213177,123.721161 173.199824,130.018226 L173.199824,129.989064 Z" id="e2e5sfoaykbz35"></path>
            <path d="M159.186004,109 L162,102.485078 L156.541436,105.544259 C156.375724,105.641219 156.1753,105.666907 155.98895,105.615073 C155.804616,105.557904 155.65112,105.433245 155.561694,105.268083 L150.014733,95 L143.627993,105.317653 C143.419781,105.630726 142.995254,105.735843 142.655617,105.558422 L138,102.874557 L140.644567,109 L159.186004,109 Z" id="e2e5sfoaykbz36"></path>
            <path d="M138.441035,112.7603 C138.494642,112.9031 138.627409,112.998013 138.776339,113 L161.227137,113 C161.377496,112.997016 161.511918,112.902966 161.569731,112.7603 L167.969666,96.8726592 C168.03321,96.7244404 167.994704,96.5509408 167.874906,96.4456929 C167.759606,96.3366292 167.589371,96.3155161 167.452131,96.3932584 L156.926497,102.28839 L150.329753,89.2097378 C150.270812,89.0858629 150.1504,89.0052891 150.016317,89 C149.884534,89.006409 149.763217,89.0756697 149.688302,89.1872659 L142.107513,102.280899 L132.558634,96.4007491 C132.421531,96.3188262 132.248951,96.3353064 132.128885,96.441788 C132.00882,96.5482697 131.967712,96.7213004 132.026521,96.8726592 L138.441035,112.7603 Z M136.101195,101.097378 C136.334155,100.90507 136.657734,100.87835 136.917588,101.029963 L142.748964,104.610487 L149.352998,93.2097378 C149.486474,92.9902734 149.720738,92.8571603 149.972581,92.8576764 C150.225054,92.8686427 150.45399,93.0132007 150.577587,93.2397004 L156.306914,104.588015 L162.867212,100.64794 C163.128154,100.503924 163.447954,100.536492 163.676315,100.730337 C163.907697,100.929826 163.98468,101.261479 163.865835,101.546816 L160.097308,110.857676 C159.982101,111.121239 159.72966,111.293212 159.448568,111.299625 L140.16858,111.299625 C139.887488,111.293212 139.635046,111.121239 139.519839,110.857676 L135.875229,101.921348 C135.775362,101.62516 135.865523,101.296393 136.101195,101.097378 Z" id="e2e5sfoaykbz37"></path>
            <path d="M129,153.855385 L130.255123,157 C132.475113,155.742992 134.255338,153.833115 135.354508,151.529231 C135.602191,151.033863 135.817801,150.523066 136,150 C134.321721,151.945641 131.603484,153.051282 129,153.855385 Z" id="e2e5sfoaykbz38"></path>
            <path d="M159.183771,141.900609 L159.183771,122.066981 C159.153169,120.998592 159.400102,119.940842 159.899761,119 L154.887828,119 L154.887828,141.86427 L154.71599,153.223728 C154.719126,154.196593 154.472348,155.153482 154,156 L160,156 C159.499729,154.960353 159.254108,153.813482 159.28401,152.656845 L159.183771,141.900609 Z" id="e2e5sfoaykbz39"></path>
            <path d="M167.736697,157.381904 L164.504572,156.407194 C163.774973,156.197811 162.79731,155.685186 162.79731,153.425301 L162.680574,142.754024 L162.680574,123.057647 C162.680574,121.346488 163.497725,120.819422 164.285692,120.530619 L167.692921,119.389847 C167.822721,119.349332 167.914944,119.235253 167.926393,119.101044 C167.981653,118.48708 167.939806,117.868344 167.802361,117.267143 C167.768004,117.111004 167.628224,117 167.466745,117 L133.255832,117 C133.089169,117.003268 132.946908,117.120087 132.912921,117.281584 C132.818494,117.8712 132.779415,118.468199 132.796185,119.064943 C132.792505,119.216431 132.890765,119.351974 133.036953,119.397067 L135.284119,120.075754 C137.020565,120.646141 137.472917,121.021585 137.472917,123.115408 C137.472917,131.223557 136.239894,144.652904 134.014616,147.743098 C132.555417,149.779161 128.739612,150.891053 125.259424,151.779123 C125.161177,151.804041 125.078671,151.869886 125.033248,151.959625 C124.988917,152.04836 124.988917,152.152473 125.033248,152.241208 L128.491549,160.804222 C128.526397,160.889692 128.594876,160.957459 128.681245,160.991944 C128.726815,161.002685 128.774298,161.002685 128.819868,160.991944 C128.863368,160.998827 128.907697,160.998827 128.951196,160.991944 C133.328792,159.230245 136.152342,156.732097 138.129556,152.891015 C140.996881,147.317114 141.777553,134.515913 142.339344,125.16591 C142.426896,123.808535 142.499856,122.523361 142.580112,121.339268 L152.232711,121.339268 L152.232711,142.681823 L152.057607,153.995687 C152.122279,155.100558 151.373871,156.0911 150.284681,156.342213 L147.417356,157.266383 C147.270895,157.308099 147.169832,157.440467 147.169292,157.591287 C147.149479,158.224314 147.191012,158.857762 147.293324,159.482947 C147.322033,159.647526 147.467484,159.766964 147.636235,159.764531 L167.481337,159.764531 C167.650089,159.766964 167.79554,159.647526 167.824249,159.482947 C167.946074,158.901156 168.004775,158.308155 167.999697,157.714028 C168.003176,157.555456 167.893158,157.416341 167.736697,157.381904 Z M161.578879,158.147233 L152.655879,158.147233 C152.385491,158.118939 152.153432,157.944203 152.053775,157.693862 C151.95412,157.44352 152.0034,157.159107 152.181639,156.95592 C152.984717,156.181843 153.426137,155.112011 153.40007,154.002907 L153.575174,142.717923 L153.575174,119.989113 L140.748818,119.989113 L140.683154,120.898843 C140.602898,122.119037 140.515346,123.476412 140.427794,124.913207 L140.427794,125.072049 C139.895186,133.736144 139.099923,146.869469 136.385814,152.147347 C135.027036,154.968506 132.750734,157.256718 129.921563,158.645418 C129.823533,158.699514 129.712762,158.726918 129.60054,158.724839 C129.518226,158.735842 129.43479,158.735842 129.352476,158.724839 C129.167286,158.653107 129.019711,158.509675 128.9439,158.327735 L127.090718,153.735764 C127.013687,153.555781 127.013687,153.352582 127.090718,153.172598 C127.179475,153.000004 127.334577,152.86993 127.521182,152.811594 C130.213403,152.039046 133.489304,150.876613 135.036055,148.725029 C137.845012,144.818966 138.793491,129.534058 138.793491,123.158728 C138.793491,121.53421 138.494356,120.537839 137.808532,119.844712 C137.637354,119.638271 137.5953,119.355187 137.699199,119.108729 C137.803097,118.86227 138.035978,118.692689 138.30466,118.667839 L161.549695,118.667839 C161.834476,118.676584 162.088057,118.84858 162.199038,119.108264 C162.296261,119.376636 162.224796,119.676494 162.016638,119.873592 C161.132556,120.711499 160.665616,121.891788 160.739839,123.100968 L160.739839,142.797344 L160.856575,153.483061 C160.773481,154.735266 161.175215,155.971811 161.980158,156.941479 C162.157081,157.076232 162.26192,157.283729 162.264702,157.504646 C162.225924,157.856125 161.935641,158.128107 161.578879,158.147233 Z" id="e2e5sfoaykbz40"></path>
            <path d="M95.398676,59.701778 C95.8473704,59.4981353 96.3254873,59.2775224 96.8698051,59.0484244 C104.401986,55.8919631 107.969474,57.2495809 110.463038,59.0484244 L111,58.0302111 C108.293122,56.1380313 104.460831,54.6361667 96.5167341,57.9793004 C95.957705,58.2083984 95.4648768,58.4374964 95.045605,58.6411391 C93.7768216,59.3341572 92.4021133,59.7320486 91,59.8120844 L91,61 C92.5263398,60.9079603 94.0215697,60.466659 95.398676,59.701778 Z" id="e2e5sfoaykbz41"></path>
            <path d="M96.7980698,61.9263415 L95.454343,62.5171004 C94.0530631,63.2719327 92.5429599,63.7218324 91,63.8441674 L91,65 C92.657781,64.8780973 94.281484,64.4019739 95.7884187,63.5958775 C96.2041574,63.4075196 96.6421678,63.2105999 97.1172977,63.0136803 C104.489235,59.8972132 108.000742,61.2414037 110.480327,62.9708717 L111,61.9777119 C108.475872,60.213997 104.59317,58.6129548 96.7980698,61.9263415 Z" id="e2e5sfoaykbz42"></path>
            <path d="M95.7677298,63.8671102 L94.691182,64.3590515 C93.2086644,65.1780062 91.6227219,65.6886077 90,65.8693979 L90,67 C91.7260584,66.8239437 93.4142244,66.2896858 94.9906191,65.4206093 L96.0600375,64.9286679 C102.954221,61.8389308 106.333583,63.2802327 108.508068,64.9286679 L109,63.9620462 C106.675797,62.218675 103.046904,60.6392843 95.7677298,63.8671102 Z" id="e2e5sfoaykbz43"></path>
            <path d="M96.012112,67.816435 L95.1994701,68.178792 C93.5548094,69.0852418 91.7991562,69.6678773 90,69.9043015 L90,71 C91.8992427,70.7834356 93.7569372,70.2007837 95.501514,69.2744905 L96.2997729,68.903506 C103.110144,65.8579818 106.526117,67.4281954 108.52536,68.903506 L109,67.9717309 C106.835352,66.3066142 103.203634,64.5983598 96.012112,67.816435 Z" id="e2e5sfoaykbz44"></path>
            <path d="M96.2872463,70.7900584 L95.8724627,70.972738 C93.8203753,71.9035341 91.7027959,72.8691263 90,72.9387185 L90,74 C91.848334,73.9304078 94.0386825,72.9300195 96.156262,71.9731263 L96.5710456,71.7817477 C103.229414,68.7805828 106.591344,70.3290099 108.541555,71.7817477 L109,70.9118448 C106.926082,69.3025245 103.30946,67.623612 96.2872463,70.7900584 Z" id="e2e5sfoaykbz45"></path>
            <path d="M98.5489362,74.7511888 C96.6673114,75.6245251 93.8154739,76.8995962 92,76.9694631 L92,78 C93.9551257,77.9301331 96.7775629,76.6463287 98.8355899,75.7118588 C103.708704,73.5023178 107.538104,73.4935845 110.551644,75.7118588 L111,74.8385224 C107.736557,72.401914 103.694004,72.401914 98.5489362,74.7511888 Z" id="e2e5sfoaykbz46"></path>
            <path d="M98.8186083,78.3475346 C95.5430023,79.5570588 93.3072713,80.1582843 92,80.2007238 L92,81 C93.4112588,80.9575606 95.7138389,80.3351154 99.10086,79.0972982 C103.780297,77.3785006 107.64269,77.3643542 110.561767,79.0972982 L111,78.3899741 C107.86552,76.5509314 103.758014,76.536785 98.8186083,78.3475346 Z" id="e2e5sfoaykbz47"></path>
            <path d="M99.0987362,81.3157144 C96.6749605,82.2081154 93.5383096,83.1784245 92,83.2280023 L92,84 C94.078594,83.9362571 98.1682464,82.4772523 99.3763823,82.0310518 C103.923776,80.3595705 107.698262,80.352488 110.572275,82.0310518 L111,81.3723748 C107.878357,79.5592426 103.863744,79.5450775 99.0987362,81.3157144 Z" id="e2e5sfoaykbz48"></path>
            <path d="M99.0015974,85.2850917 C96.9816294,86.0823266 93.4736422,87.2314942 92,87.2817703 L92,88 C93.6461661,87.9425416 97.3194888,86.7143688 99.2460064,85.9530453 C104.464856,83.891726 107.764377,84.8038777 109.611821,85.9530453 L110,85.3066385 C108.023163,84.1000126 104.507987,83.1088556 99.0015974,85.2850917 Z" id="e2e5sfoaykbz49"></path>
            <path d="M99.2639225,88.2299232 C97.1791768,89.0573487 93.401937,90.2373295 92,90.2804995 L92,91 C93.6779661,90.949635 97.811138,89.5609991 99.5181598,88.8990586 C104.842615,86.7837272 108.133172,87.978098 109.622276,88.8990586 L110,88.2802882 C108.372881,87.2945726 104.849879,85.9994717 99.2639225,88.2299232 Z" id="e2e5sfoaykbz50"></path>
            <path d="M131.115484,59.0894914 C131.667157,59.3187524 132.145274,59.5395223 132.586613,59.7433099 C133.970892,60.4962422 135.471192,60.9234455 137,61 L137,59.8112391 C135.597887,59.7311463 134.223178,59.3329717 132.954395,58.6394604 C132.505701,58.4356728 132.012872,58.2064118 131.483266,57.9771508 C123.539169,54.640129 119.714233,56.1345713 117,58.0280977 L117.536962,59.0470356 C120.015815,57.2893677 123.583303,55.9222926 131.115484,59.0894914 Z" id="e2e5sfoaykbz51"></path>
            <path d="M131.188288,61.9263415 C123.382506,58.6129548 119.50556,60.213997 117,61.9777119 L117.518903,62.9708717 C119.979985,61.2585272 123.486286,59.8972132 130.86212,63.0136803 C131.336546,63.2105999 131.773907,63.4075196 132.189029,63.5958775 C133.691432,64.4009491 135.310133,64.8770485 136.962936,65 L137,63.8441674 C135.459191,63.7228084 133.951173,63.2728634 132.552261,62.5171004 L131.188288,61.9263415 Z" id="e2e5sfoaykbz52"></path>
            <path d="M131.243071,63.9095362 C123.977528,60.6464208 120.348315,62.1830201 118,63.9613317 L118.491011,64.9281807 C120.625843,63.3225207 124.027341,61.8808798 130.91573,64.9281807 L131.983146,65.4202378 C133.556302,66.290496 135.241449,66.8249235 136.964419,67 L137,65.869132 C135.38015,65.6894422 133.797021,65.1786706 132.317603,64.3584304 L131.243071,63.9095362 Z" id="e2e5sfoaykbz53"></path>
            <path d="M131.007582,68.4876413 C123.805155,65.862684 120.139121,67.256093 118,68.5298658 L118.47536,69.2899071 C120.448825,68.1146581 123.869977,66.8338478 130.683472,69.2899071 L131.490144,69.5925162 C133.237366,70.3480859 135.097877,70.8233502 137,71 L137,70.1062478 C135.210204,69.9341997 133.459778,69.4852398 131.814253,68.7761755 L131.007582,68.4876413 Z" id="e2e5sfoaykbz54"></path>
            <path d="M130.744257,70.4723193 C123.724732,67.8805565 120.109495,69.2547604 118,70.4723193 L118.465544,71.184342 C120.415008,70.023745 123.775651,68.7563445 130.43147,71.184342 L130.846095,71.340987 C132.962864,72.124212 135.152374,72.9430382 137,73 L137,72.1313323 C135.297856,72.0743704 133.181087,71.2840252 131.129786,70.5221609 L130.744257,70.4723193 Z" id="e2e5sfoaykbz55"></path>
            <path d="M118,74.3480403 L118.431349,75 C121.330583,73.3701007 125.014732,73.3766203 129.703005,75 L130,74.2828443 C125.05716,72.5616707 121.132587,72.5616707 118,74.3480403 Z" id="e2e5sfoaykbz56"></path>
            <path d="M297.11564,251.824948 C292.693837,254.80221 287.129736,256.316571 280.585468,256.316571 C277.240455,256.295765 273.906495,255.931178 270.636413,255.228584 C268.700317,254.79792 266.724237,254.571239 264.740677,254.552267 C262.898035,254.526604 261.06277,254.789547 259.30186,255.331501 C262.382297,252.237 265.756186,249.44763 269.376199,247.002518 C273.298808,244.497915 276.045372,240.523489 276.996439,235.97562 L275.994164,235.666866 C273.901177,240.077626 261.991789,244.304603 255.056929,245.223511 C249.382283,245.958638 247.355624,247.428891 246.640766,248.487473 C244.569888,245.943935 242.307399,243.209265 239.912256,240.349622 C239.264254,239.580965 238.294436,239.15705 237.288654,239.202825 C234.709269,239.202825 231.503462,241.327341 229.624196,242.812296 L227.29538,238.511806 C237.760313,234.417151 245.505836,224.544402 244.326689,213.039671 C242.196854,192.353211 233.272183,159.654782 233.272183,120.362268 C233.272183,83.4883212 244.326689,47.6803074 244.326689,47.6803074 C240.719003,47.676817 237.147561,46.9623137 233.817539,45.5778455 L245.292116,28.2729668 L245.491097,27.9642136 L256.088683,11.9899139 L256.317143,11.6370531 L256.191859,11.2327335 C253.162924,1.72754737 241.496736,0.249943024 241.002968,0.205835431 L240.472351,0.147025308 L219.144525,31.3237419 C217.572124,27.8101186 216.760974,24.0049808 216.764121,20.1571697 L81.1621822,20.1571697 C81.1621984,22.1550915 80.9422462,24.1469727 80.5062815,26.0969922 C76.8214462,21.134888 72.5912553,15.621439 67.9778415,9.83599311 L66.5039074,10.8210627 L67.4177466,10.1888539 L67.4177466,10.1079899 C67.5544355,9.49879351 67.4258923,8.86035081 67.0640024,8.3510375 C66.8264469,8.09723286 66.4907216,7.95791976 66.1427936,7.9687717 L66.0175092,7.9687717 L66.4523197,7.67472108 C65.8553764,6.71905658 60.8661094,0 54.8008705,0 C52.7858228,0.0229285968 50.841767,0.745579305 49.3030963,2.04365178 C46.5026214,4.2490314 45.5077159,7.88055651 46.421555,12.5118537 C46.8943098,14.8471765 47.724515,17.0960256 48.883025,19.1794514 L49.6421011,19.1794514 L49.6421011,19.223559 C49.6990104,19.7929756 49.9424881,20.3278051 50.3348501,20.745271 L50.3348501,20.745271 L50.7475517,21.4436412 C50.7475517,21.4803975 50.9907508,21.8626633 51.3739737,22.5242772 L49.9000396,20.2453849 L49.9516273,20.2453849 L48.7430013,19.5102584 C47.4606786,20.1792235 45.4119102,22.0979038 46.3847067,24.9207897 L46.4362944,25.0310587 C47.0700861,26.0308308 52.9363439,35.3228303 60.3133841,46.8422632 C58.4163675,47.31076 56.4743561,47.5744705 54.520823,47.6288486 L54.520823,47.6288486 L54.520823,47.6288486 L53.7175289,47.6288486 L54.0123158,48.4668928 L54.0123158,48.4668928 L54.0565338,48.4668928 C56.0316055,54.1861773 66.7692156,86.7816881 66.7692156,120.259351 C66.7692156,159.551864 55.8694727,192.250293 53.7396379,212.936754 C52.4499456,225.500066 61.8462756,236.174104 73.7998813,239.401309 L70.3287664,244.370765 C69.9971313,244.076714 69.8276288,243.907635 69.8128895,243.892932 C68.8548323,242.937268 64.2414185,239.092556 60.7776734,239.092556 C59.7699822,239.047866 58.7983855,239.47137 58.146701,240.239353 C55.6999703,243.17986 53.4374815,245.899828 51.4255614,248.377204 C50.6885943,247.348027 48.6840439,245.848369 43.0093976,245.113242 C36.0597982,244.216388 24.1651499,239.967357 22.0647937,235.556597 L20.9003858,235.97562 C21.8594615,240.522058 24.6073028,244.494491 28.5279949,247.002518 C32.1573785,249.455281 35.5388045,252.254609 38.6244436,255.360906 C36.8638027,254.817759 35.0283472,254.554788 33.1856267,254.581672 C31.2020363,254.600155 29.2259056,254.826842 27.2898902,255.257989 C24.7245064,255.783681 22.1117238,256.0448 19.4927787,256.037223 C14.4814027,256.037223 7.17068948,255.133017 0.810663765,250.854581 L0,251.427979 C0,251.530897 2.7562568,261.212514 12.6905728,263.86632 C15.2365655,264.5414 17.8172524,265.078826 20.4213572,265.476248 C24.5262637,266.159915 28.7638243,266.865637 40.4079038,270.813266 C44.3506776,272.151197 48.5145415,274.643276 53.0174102,277.694051 L53.4595905,276.716332 C48.9640914,273.665557 44.7560095,271.173478 40.7469087,269.813494 C29.0291325,265.83646 24.7399842,265.123387 20.5982293,264.432368 C18.025565,264.045388 15.4765964,263.51527 12.9632506,262.844495 C5.88099713,260.947868 2.68992977,255.250637 1.54763082,252.552723 C7.79711148,256.228356 14.6803838,257.0664 19.4927787,257.0664 C22.1938971,257.0789 24.8888375,256.807862 27.5330893,256.257761 C29.4043688,255.845583 31.3135704,255.628778 33.2298447,255.610849 C37.9832822,255.610849 40.3342071,257.18402 40.7542784,257.492773 L39.8404392,258.426384 C39.2582352,258.044118 37.1726185,256.897321 33.2077357,256.897321 C31.3803713,256.916241 29.5599956,257.125665 27.7762885,257.522178 C25.0508347,258.079943 22.2749812,258.35585 19.4927787,258.34552 C14.6412818,258.385035 9.82420939,257.530196 5.28405381,255.824036 C5.20780794,255.791144 5.11888918,255.815612 5.07033337,255.882846 C5.02352859,255.948946 5.02352859,256.037285 5.07033337,256.103384 C7.11804351,258.796025 10.0110342,260.72677 13.2875161,261.587428 C15.762362,262.249032 18.2718476,262.774217 20.8045801,263.160599 C24.9979226,263.851618 29.331289,264.572042 41.1596102,268.585833 C45.3013651,269.989925 49.398902,272.408491 53.9680977,275.503374 L53.4522208,276.708981 L48.168167,288.992946 L43.3557721,298.733372 C43.1683923,299.119364 43.2864611,299.583858 43.6355786,299.83416 C43.9846961,300.084461 44.4636981,300.04804 44.7707488,299.747847 L52.6931447,291.845237 L58.3383124,286.339139 L58.4120091,286.339139 C58.4152046,286.324609 58.4152046,286.309561 58.4120091,286.295031 L61.2272233,283.553009 C63.7697596,285.368772 66.5554951,287.346262 69.57706,289.434022 C73.0923929,291.830534 75.9665644,293.043493 78.1332476,293.043493 C79.4052019,293.144709 80.6256496,292.521787 81.2874666,291.433566 C81.5618571,290.94829 81.7371882,290.413615 81.8033436,289.860395 L85.171283,279.31868 C107.692996,289.794234 137.436987,290.617575 146.074241,290.617575 C147.717677,290.617575 148.734692,290.617575 148.963152,290.580819 C149.191611,290.544063 150.238105,290.617575 151.91102,290.617575 C160.526165,290.617575 190.189089,289.794234 212.688693,279.370139 L216.211396,290.397037 C216.252743,290.548948 216.30194,290.698624 216.358789,290.845465 L216.506183,291.323297 L216.56514,291.323297 L216.624097,291.440917 C217.284694,292.530445 218.506013,293.153812 219.778316,293.050844 C221.945,293.050844 224.819171,291.837885 228.334504,289.441373 C231.127609,287.537395 233.714363,285.714281 236.094767,284.016139 C237.957144,286.011439 239.948778,287.882681 242.056831,289.617803 C242.660956,290.016814 243.366442,290.236091 244.09086,290.250012 L249.478089,294.962173 C249.535638,295.012855 249.603527,295.050477 249.67707,295.072442 L252.337521,295.881081 L252.492284,295.881081 C252.778123,295.877415 253.011176,295.651402 253.0229,295.366493 L253.096597,292.595066 C253.114695,292.52515 253.114695,292.451795 253.096597,292.381879 L250.679345,286.456759 C250.650788,286.385639 250.60525,286.322551 250.546691,286.272977 C250.781209,285.553839 250.765629,284.776807 250.502473,284.067598 C249.485459,281.354981 248.402117,278.67912 247.326145,276.17969 C250.518967,273.992299 253.969291,272.204784 257.599466,270.857374 C269.236176,266.909744 273.481106,266.204023 277.586012,265.520355 C280.190117,265.122933 282.770804,264.585508 285.316797,263.910428 C291.182751,262.441877 295.935082,258.164168 298,252.493913 L297.11564,251.824948 Z M228.260807,243.959094 L228.260807,243.959094 C228.179741,244.039958 224.863389,247.377432 217.147344,251.354467 L208.672223,240.474594 L216.77886,240.474594 C219.782556,240.467957 222.766644,239.991696 225.622465,239.063151 L228.260807,243.959094 Z M90.5364032,240.489296 L94.9582056,240.489296 L85.6576813,253.721574 C84.4711643,253.206986 83.358344,252.685046 82.3118508,252.177808 L90.5364032,240.489296 Z M81.390642,251.670571 C79.2000126,250.57862 77.071819,249.366248 75.0158769,248.039046 L80.3367791,240.467243 C80.6094569,240.467243 80.8821347,240.467243 81.1621822,240.467243 L89.2688199,240.467243 L81.390642,251.670571 Z M97.1543674,240.489296 L128.173311,240.489296 C132.786725,240.489296 146.479573,245.15735 148.963152,259.712856 C151.446731,245.15735 165.176427,240.489296 169.745623,240.489296 L197.838807,240.489296 L210.146157,254.574321 C197.669305,259.676099 178.007023,264.704365 148.977891,264.711716 C119.602384,264.711716 99.8295578,259.56583 87.3674449,254.419944 L97.1543674,240.489296 Z M200.182362,240.489296 L205.341132,240.489296 L210.138787,246.862844 C211.310565,248.413961 213.263528,250.913391 214.494263,252.4204 L214.649026,252.604182 C213.772035,253.015853 212.850826,253.434875 211.878029,253.853897 L200.182362,240.489296 Z M241.312494,2.02159799 C243.523395,2.40386379 251.851123,4.33724659 254.37155,11.3650563 L244.334059,26.5160143 C238.755218,20.0101444 232.468889,18.2752458 230.479078,17.8709262 L241.312494,2.02159799 Z M229.823177,18.8265907 C230.773865,18.9883185 237.775052,20.3703564 243.722376,27.4422738 L242.086309,29.9049477 C236.647492,23.4505366 230.479078,21.5833152 228.268177,21.0834292 L229.823177,18.8265907 Z M227.612276,22.0537962 C229.08621,22.3404956 235.79998,23.9724765 241.467257,30.8238558 L239.809081,33.3306373 C236.339436,28.9121857 231.531407,25.7303081 226.101494,24.2591758 L227.612276,22.0537962 Z M225.445593,25.2221916 C230.913477,26.6103105 235.754457,29.7924586 239.190029,34.2568968 L237.642398,36.5872479 C232.321496,30.1328369 226.234148,28.140644 223.831635,27.5892991 L225.445593,25.2221916 Z M223.183104,28.530261 C228.681959,29.8742782 233.564288,33.0320958 237.038085,37.4914536 L235.564151,39.6968332 C232.087694,35.2352091 227.250533,32.0227892 221.782867,30.5445078 L223.183104,28.530261 Z M221.119596,31.5516311 C226.622179,32.9577459 231.488203,36.1746655 234.930359,40.6819028 L233.544861,42.7770134 C230.196087,38.4902906 225.597732,35.3442004 220.382629,33.7717133 C220.257345,33.5658778 220.13943,33.3600424 220.028885,33.1468557 L221.119596,31.5516311 Z M230.515926,41.0274122 C231.378018,41.8648809 232.183102,42.758822 232.925809,43.7032728 L232.188842,44.8353677 C231.130834,44.3147165 230.106866,43.7278959 229.123059,43.0784153 L230.515926,41.0274122 Z M228.238698,42.4976653 C226.221812,41.0513185 224.409731,39.3401983 222.851469,37.4105896 L223.698981,36.2270359 C225.894866,37.2973537 227.927106,38.6735495 229.734741,40.3143395 L228.238698,42.4976653 Z M222.718815,35.7786087 L222.16609,36.5137353 C221.849194,36.0800106 221.539668,35.6315834 221.237511,35.1831562 C221.699344,35.3399832 222.195568,35.5311161 222.726185,35.7565549 L222.718815,35.7786087 Z M240.693441,49.2093706 L228.599812,56.4062595 C218.294999,51.9297204 210.368399,43.3152826 206.778217,32.6910773 L215.105945,22.7227614 C216.336106,36.4509356 226.9913,47.468183 240.700811,49.1873168 L240.693441,49.2093706 Z M226.587892,57.9059176 C222.586161,73.5567616 218.061183,96.5368173 218.061183,120.325512 C218.061183,147.995675 222.645118,172.100474 226.329954,191.471059 C228.047087,200.461656 229.521021,208.231944 230.162182,214.451114 C230.35549,217.075804 229.414052,219.657625 227.575428,221.545086 C224.791728,224.559658 220.872907,226.278354 216.764121,226.286652 L169.767732,226.286652 C163.068701,226.286652 155.249481,229.227158 148.985261,234.042237 C142.713671,229.227158 134.90182,226.286652 128.19542,226.286652 L81.1621822,226.286652 C77.0521545,226.274149 73.1326667,224.556332 70.3435058,221.545086 C68.5067473,219.656874 67.5679102,217.074831 67.7641211,214.451114 C68.3979128,208.261349 69.8644772,200.54252 71.5668711,191.603382 L71.5668711,191.471059 L71.5668711,191.412249 C75.2517064,172.056367 79.8282718,147.973621 79.8282718,120.325512 C79.8282718,96.5515198 75.2959244,73.5641129 71.301563,57.9059176 C81.3267927,53.2218912 89.0794031,44.7615853 92.8578494,34.3818683 L204.987387,34.3818683 C208.777669,44.7688329 216.546897,53.2299181 226.587892,57.9059176 Z M148.963152,21.9214734 L214.383717,21.9214734 L205.8349,32.1544349 L92.0766644,32.1544349 L83.5425858,21.9214734 L148.963152,21.9214734 Z M66.9460876,11.3724076 C71.7584825,17.4298503 76.1360669,23.1344322 79.9314472,28.280318 C78.4961059,32.9080624 75.8595465,37.074936 72.2890988,40.3584471 L57.8371748,19.5396634 L55.8621031,20.884945 L69.2896429,42.7549596 C68.3922993,43.374389 67.4596984,43.9413884 66.4965377,44.4531019 C60.1291423,34.0657639 54.2260362,23.987179 52.6489267,21.3186697 L66.9460876,11.3724076 Z M48.168167,12.1663442 C47.3796122,8.16725587 48.1313186,5.2267497 50.3790682,3.41833841 C51.6171072,2.37387136 53.1796086,1.78939651 54.8008705,1.7643037 C59.2226729,1.7643037 63.2170343,6.29268319 64.6099021,8.07168942 L50.157978,17.9076825 C49.2285771,16.0962388 48.5587676,14.1635919 48.168167,12.1663442 Z M50.047433,19.2823692 L66.0838362,8.3289837 C66.3761431,8.28700283 66.6711672,8.38509812 66.8797606,8.59362926 C67.1534377,9.00443341 67.2515797,9.50714528 67.1524384,9.99036969 L51.366604,20.8996475 C51.1160352,20.8702425 50.2537838,20.6644071 50.0105846,19.2823692 L50.047433,19.2823692 Z M47.3427639,24.5164701 C46.8727079,23.0445762 47.4840139,21.4439066 48.816698,20.6570558 L63.2759917,42.5785292 L64.8973192,45.232336 L64.6541201,45.342605 C51.7571966,25.2810017 51.6171728,25.2442454 51.388713,25.2001378 L51.2929073,25.7220777 L51.2929073,25.7220777 L50.8875754,26.0528846 C51.2486893,26.5013118 56.8422693,35.1611024 63.6371055,45.7322221 C62.9001385,46.0262727 62.0968444,46.2909183 61.3082896,46.5188075 C53.805965,34.7861879 47.8291621,25.3398119 47.3059155,24.5164701 L47.3427639,24.5164701 Z M82.8056188,22.7007076 L91.1333465,32.6763747 C87.5470798,43.3011616 79.6188649,51.9146826 69.3117519,56.3842057 L57.1149471,49.1946681 C70.8745996,47.5199491 81.5855182,36.4741252 82.8056188,22.7007076 Z M61.0945692,229.874069 C56.8719993,225.389623 54.7838097,219.31205 55.3609655,213.186697 C56.0979325,206.254453 57.7782174,197.962226 59.7827678,188.361473 C63.6297359,169.696611 68.4200218,146.459261 68.4200218,120.325512 C68.4200218,89.5237101 59.2889999,59.1482815 56.2526956,49.9003896 L68.9432684,57.3839778 C72.642843,71.7336478 77.6468493,95.6473142 77.6468493,120.325512 C77.6468493,147.78984 73.0776536,171.78437 69.4149273,191.059388 C67.6904244,200.108796 66.2017509,207.915839 65.5532199,214.230576 C65.2807477,217.485776 66.4274345,220.700268 68.7000692,223.052095 C71.9078075,226.524547 76.4211316,228.506516 81.1548125,228.521436 L128.165941,228.521436 C134.209071,228.521436 142.27886,231.248756 148.955782,236.90923 C155.625334,231.248756 163.695123,228.521436 169.738253,228.521436 L216.756751,228.521436 C221.490243,228.505624 226.003225,226.523805 229.211495,223.052095 C231.484799,220.701068 232.6293,217.48517 232.350974,214.230576 C231.702443,207.915839 230.22114,200.108796 228.496637,191.059388 C224.811801,171.777019 220.264715,147.78984 220.264715,120.325512 C220.264715,95.6473142 225.276091,71.7262966 228.997774,57.3766265 L241.879958,49.7092567 C239.396379,58.6116391 231.56242,89.2517133 231.56242,120.325512 C231.56242,147.297305 235.711544,171.049243 239.042635,190.162534 C240.590266,199.02816 241.924176,206.688178 242.594817,213.194048 C243.167373,219.321068 241.079959,225.399058 236.861213,229.888772 C231.692638,235.48468 224.421476,238.681009 216.7936,238.71029 L169.767732,238.71029 C165.397517,238.71029 153.819765,242.385923 148.985261,253.486334 C144.150757,242.356518 132.573004,238.71029 128.19542,238.71029 L81.1621822,238.71029 C73.5314934,238.679897 66.2589609,235.477637 61.0945692,229.874069 Z M75.5022752,239.915898 C76.6967713,240.151862 77.9055609,240.30903 79.1207835,240.386379 L74.1683648,247.443594 C73.1145019,246.708467 72.2522505,246.090961 71.5816104,245.56167 L75.5022752,239.915898 Z M71.0804728,245.238214 C70.69725,244.92211 70.3950935,244.664815 70.159264,244.45898 C70.4319418,244.664815 70.7340983,244.92211 71.1173212,245.238214 L71.0804728,245.238214 Z M58.7878623,240.989183 C59.2373901,240.462535 59.9085777,240.176768 60.6008013,240.2173 C63.4454941,240.2173 67.7272727,243.562125 68.8769413,244.701572 C69.0759224,244.914758 89.7036304,265.755596 148.926303,265.770298 C208.148976,265.785001 228.776684,244.914758 228.968296,244.708923 C230.125334,243.562125 234.407112,240.2173 237.251805,240.2173 C237.944029,240.176768 238.615216,240.462535 239.064744,240.989183 L239.646948,241.724309 C238.858394,241.591986 237.266545,241.540527 237.251805,241.540527 C235.12934,241.540527 231.356069,244.209037 229.882135,245.642534 C229.329409,246.208581 224.126422,251.332413 211.833811,256.48565 C200.322386,261.315431 180.055792,267.078823 148.911564,267.086182 C117.767336,267.093526 97.5154813,261.315431 85.9966861,256.48565 C73.4682461,251.229495 68.1768226,245.863071 67.9557325,245.635182 C66.4817984,244.209037 62.7158967,241.540527 60.5860619,241.540527 C60.5860619,241.540527 58.9794737,241.591986 58.190919,241.724309 L58.7878623,240.989183 Z M51.4992581,249.810701 L51.4992581,249.810701 L51.4992581,249.810701 C53.3932634,247.48035 55.5304679,244.892704 57.8371748,242.128629 C57.8864676,242.150335 57.9426451,242.150335 57.9919379,242.128629 C58.8492804,242.007281 59.7130095,241.936098 60.5786923,241.915442 C62.5685033,241.915442 66.312296,244.547195 67.675685,245.907179 C68.2284103,246.473227 73.4461371,251.633815 85.841923,256.831159 C97.3901969,261.675643 117.701009,267.453738 148.896825,267.461089 C180.09264,267.468441 200.418192,261.675643 211.966466,256.831159 C224.318033,251.648517 229.572609,246.480578 230.125334,245.907179 C231.496093,244.547195 235.239885,241.915442 237.229696,241.915442 C238.095345,241.936728 238.959037,242.007908 239.816451,242.128629 C239.865743,242.150335 239.921921,242.150335 239.971214,242.128629 C242.226333,244.826543 244.393016,247.414188 246.30913,249.810701 L246.30913,249.810701 L246.30913,249.810701 L246.30913,249.810701 L246.30913,249.810701 L246.596548,249.553407 L246.360718,249.854809 L250.495103,253.023204 C250.251261,252.984305 250.005023,252.962199 249.758136,252.957043 C246.345979,252.957043 243.036997,255.971061 239.16792,259.492318 C237.443417,261.050786 235.667326,262.668064 233.802799,264.079507 C226.838461,269.372418 220.655307,272.445247 212.018053,276.539902 C189.967999,286.98605 160.364032,287.802041 151.822584,287.802041 C150.201256,287.802041 149.21372,287.802041 148.970521,287.802041 L148.823128,287.802041 C148.579929,287.802041 147.585023,287.802041 145.971065,287.802041 C137.422248,287.802041 107.82565,286.98605 85.7682263,276.539902 C77.1309724,272.445247 70.9478188,269.372418 63.9834801,264.079507 C62.1189534,262.668064 60.3428628,261.050786 58.6183599,259.484966 L58.6183599,259.44821 C54.7861312,255.96371 51.4771491,252.957043 48.0723613,252.957043 C47.9102285,252.957043 47.7554654,252.957043 47.5933327,253.00115 L51.4992581,249.810701 Z M41.2480463,268.188865 C29.3902463,264.160371 25.034771,263.439947 20.8340588,262.748928 C18.3141311,262.362141 15.8170656,261.839435 13.3538431,261.183109 C10.3807735,260.401174 7.72530584,258.715784 5.75571273,256.360678 C10.154703,257.92431 14.7934397,258.710427 19.4633,258.683678 C22.2727283,258.694799 25.0757943,258.416425 27.8278761,257.852985 C29.5843502,257.458549 31.3778951,257.25155 33.178257,257.235479 C37.7032347,257.235479 39.7004155,258.786596 39.7151548,258.793947 L39.7151548,258.793947 C39.7867961,258.863995 39.901452,258.863995 39.9730933,258.793947 C39.9937704,258.765174 40.0087758,258.732744 40.0173113,258.698381 L42.7219804,255.919603 C42.7922031,255.84814 42.7922031,255.733771 42.7219804,255.662308 C42.663023,255.596147 36.5977842,248.943252 29.9724503,244.679518 C29.6260758,244.451629 29.2797013,244.209037 28.9406964,243.944391 C33.259442,245.827319 37.8053496,247.14197 42.4640419,247.855264 C48.0428826,248.590391 48.9714611,249.957726 49.0156791,250.023888 C49.0726643,250.109139 49.1881412,250.132172 49.2736095,250.075335 C49.3590785,250.018498 49.382178,249.903312 49.3252053,249.818052 C49.2220299,249.656324 48.1607973,248.222828 42.5156296,247.487701 C37.4514522,246.719221 32.52308,245.234005 27.8794638,243.076942 C27.7972014,243.034697 27.6962892,243.059862 27.6436344,243.135752 C27.5883294,243.207207 27.5883294,243.306889 27.6436344,243.378344 C28.2951906,243.977434 28.9979823,244.518585 29.7439905,244.995622 C35.8239687,248.913847 41.4322881,254.853669 42.2724305,255.794631 L41.3733307,256.713539 C40.7690177,256.059277 35.0501533,249.957726 29.0143931,246.076258 C26.1532792,244.218717 23.9331652,241.529414 22.6543674,238.372132 C27.1277574,242.422679 37.2905332,245.539616 42.618805,246.230635 C48.6177169,247.002518 50.0621723,248.612445 50.4011772,249.229951 L45.3087348,253.449577 L45.4413889,253.618656 C45.1274741,253.782669 44.8290223,253.974578 44.5496587,254.192055 L44.453853,254.192055 L44.1443268,254.574321 L44.1443268,254.574321 C43.3041844,255.662308 42.7809378,256.345976 42.552478,256.654729 C42.5067698,256.662947 42.4681218,256.693238 42.4493026,256.735593 C41.2620641,258.677873 41.0653116,261.065718 41.9186863,263.175302 C43.7168859,267.953624 49.9516273,271.886551 54.5724107,273.819934 L54.0123158,275.113757 C49.5610347,272.048279 45.4487585,269.629713 41.2848946,268.21827 L41.2480463,268.188865 Z M46.0530715,295.734056 L52.7594718,282.950205 L53.3343061,282.215079 L54.6976951,283.082528 L46.0530715,295.734056 Z M81.5601444,286.912538 C81.0337863,284.863941 79.8319685,283.051476 78.1479869,281.766652 C75.103691,279.68098 71.8687918,277.886661 68.4863488,276.407579 L68.4863488,276.407579 L66.7471065,275.635696 L60.5271046,281.70049 L62.0010387,282.74437 L63.1064893,281.671085 L62.9369868,281.832813 C65.3837175,283.575063 68.0957563,285.508446 70.9404491,287.441829 C75.0306163,290.220607 77.2267781,290.639629 78.1774656,290.639629 C78.9144327,290.639629 79.1871105,290.382335 79.2976556,290.191202 C79.9609259,289.066458 79.511376,285.640769 76.8288159,283.633873 C74.6179147,281.972487 70.7046196,279.95824 66.7028885,278.164532 L67.6683154,277.22357 C71.1223038,278.698958 74.426716,280.500891 77.5363043,282.604696 C79.7278763,284.237899 80.9313722,286.874542 80.7273716,289.595749 L80.3220398,290.867518 C79.838016,291.601047 78.9876467,292.008205 78.1111386,291.926101 C76.7698585,291.926101 74.3010189,291.330648 70.1518944,288.500411 C67.2040261,286.493515 64.4698783,284.552781 61.9789297,282.773775 L61.9789297,282.773775 L60.652389,281.832813 L60.5197349,281.729895 L57.7266297,284.449864 C56.9358405,282.706013 55.3181167,281.476408 53.4227421,281.178551 L54.8966762,277.752861 L57.3655159,272.026225 L60.4828865,264.799931 C61.1019389,265.31452 61.7209912,265.829108 62.3621525,266.314292 C63.0033139,266.799475 63.6297359,267.262605 64.2561579,267.711032 L64.6172717,267.968327 C65.2510634,268.416754 65.8774854,268.85783 66.5039074,269.276852 L66.5628648,269.276852 C67.2187655,269.717928 67.8746661,270.13695 68.5305668,270.555972 L68.5968939,270.592728 C69.2675339,271.019102 69.9455436,271.430773 70.6309229,271.835092 L66.7397369,275.628345 C67.3145712,275.878288 67.8967752,276.135582 68.4716095,276.400228 L72.2154021,272.724595 C75.8560194,274.78295 79.6808784,276.650171 84.1468988,278.767335 L81.5601444,286.912538 Z M66.3933624,278.414475 C70.4172025,280.215535 74.3599763,282.237133 76.5856168,283.90587 C79.1060441,285.787794 79.533485,288.956189 78.9586507,289.985366 C78.9218024,290.051528 78.8038876,290.250012 78.1553566,290.250012 C77.2488871,290.250012 75.1337917,289.838341 71.1320605,287.118373 C68.2726284,285.170288 65.6121773,283.281012 63.180186,281.546114 L66.3933624,278.414475 Z M55.7220793,271.349909 C51.5066278,269.5562 45.9425265,265.976134 44.5349194,262.241691 C44.0290276,261.015342 44.0855603,259.629724 44.6896825,258.448438 C44.7781185,258.330818 45.3013651,257.625096 46.3183797,256.323922 C48.5292808,254.574321 51.6245425,256.860565 55.1619844,259.999555 L55.3241171,260.139229 L55.9136908,260.66852 L56.0758235,260.815545 L56.8127906,261.469808 C57.5497576,262.153476 58.3309427,262.844495 59.1121278,263.535514 L59.1121278,263.535514 L55.7220793,271.349909 Z M151.829954,289.478129 C150.208626,289.478129 149.191611,289.478129 148.882085,289.478129 C148.572559,289.478129 147.614502,289.478129 145.993174,289.478129 C137.348551,289.478129 107.427688,288.654787 85.060738,278.054263 C76.335048,273.922852 70.0855673,270.813266 62.9517262,265.417437 C61.0208725,263.947184 59.2079335,262.300501 57.4465823,260.705276 L56.7096152,260.014257 L56.5180038,259.845178 C56.3067399,259.644244 56.0930194,259.453111 55.8768424,259.27178 L55.7147097,259.124754 C54.9040459,258.389628 54.1154911,257.728014 53.3564151,257.132561 L53.3121971,257.132561 C52.6139171,256.575957 51.8748895,256.072216 51.1012959,255.625552 L50.9391631,255.537337 C50.7696607,255.449122 50.6075279,255.360906 50.4380255,255.287394 L50.2243051,255.184476 C50.0548027,255.110963 49.8853002,255.044802 49.7084281,254.985992 L49.2736176,254.846318 L49.0377881,254.787508 L48.6250866,254.713995 L48.4703235,254.713995 C47.8205573,254.640554 47.1628113,254.736816 46.5615788,254.993343 L46.3183797,255.103612 L46.0604412,255.250637 L45.8761994,255.353555 L45.7877634,255.287394 L45.4782372,255.66966 L45.4782372,255.66966 C44.6823128,256.691485 44.1738055,257.353099 43.9379761,257.669204 L43.9379761,257.669204 C43.0079037,259.179907 42.8572854,261.042916 43.5326442,262.682767 C45.0729053,266.755368 50.8212484,270.497162 55.3241171,272.393788 L54.8156099,273.569991 C50.2611534,271.666013 44.1222178,267.81395 42.3534969,263.138545 C41.5618277,261.164533 41.730529,258.936186 42.8104165,257.103156 C42.838063,257.087738 42.8629637,257.067867 42.8841132,257.044346 C43.0683549,256.794403 43.6210802,256.088682 44.5349194,254.890425 L44.7781185,254.589024 L44.8444455,254.589024 C45.1334627,254.36458 45.4445851,254.169998 45.773024,254.008274 L46.0751805,254.361134 L47.0627164,253.552495 C47.3963885,253.476304 47.7374341,253.436861 48.0797309,253.434875 C51.344495,253.434875 54.6018894,256.375381 58.3972698,259.830476 L58.5225542,259.690802 L58.4414878,259.867232 C60.1659907,261.433052 61.949451,263.057681 63.828717,264.483827 C70.8151647,269.79144 77.0130577,272.878972 85.6797903,276.980978 C107.788802,287.463882 137.473835,288.279873 146.037392,288.279873 C147.599763,288.279873 148.602038,288.279873 148.911564,288.279873 L149.014739,288.279873 C149.324266,288.279873 150.319171,288.279873 151.888911,288.279873 C160.452468,288.279873 190.122762,287.463882 212.246513,276.980978 C220.905876,272.878972 227.103769,269.798792 234.097586,264.483827 C235.969483,263.057681 237.782422,261.440403 239.514294,259.837827 C243.294935,256.404786 246.559699,253.434875 249.831833,253.434875 C250.331772,253.437293 250.828552,253.514101 251.305767,253.662764 L252.875507,254.868372 L253.089227,254.589024 L253.162924,254.589024 L253.413493,254.905128 L253.70091,254.677239 L253.391384,254.294973 L253.325057,254.294973 L253.524038,254.037679 L247.42932,249.362274 C247.746216,248.752119 249.146454,247.120138 255.226432,246.333552 C260.554704,245.642534 270.70274,242.525597 275.19087,238.467698 C273.918355,241.630645 271.696997,244.324023 268.830844,246.179176 C262.795084,250.060644 257.039371,256.162194 256.471906,256.816457 L255.572806,255.897549 C256.435058,254.956587 262.013899,249.038818 268.101246,245.09854 C268.845564,244.619113 269.548157,244.078115 270.201603,243.481262 L269.995252,243.17986 C265.35035,245.333559 260.422468,246.818626 255.359086,247.590619 C249.397022,248.362502 248.54951,249.92097 248.542141,249.943024 L248.866406,250.112103 C248.866406,250.112103 249.802354,248.678606 255.410674,247.958182 C260.068577,247.241325 264.61403,245.926806 268.934019,244.047309 C268.595014,244.304603 268.24864,244.547195 267.902265,244.782435 C261.232713,249.075574 255.211693,255.699065 255.152735,255.772577 L255.152735,256.02252 L257.94584,258.882163 L258.049016,258.779245 L258.159561,258.918919 C258.247997,258.852757 260.289396,257.353099 264.711198,257.353099 C266.51156,257.36917 268.305105,257.576169 270.061579,257.970606 C273.518166,258.71295 277.042364,259.097254 280.578099,259.117403 C284.234789,259.126955 287.87204,258.586695 291.367296,257.514827 C289.43055,259.277739 287.089836,260.53983 284.550351,261.19046 C282.086454,261.84396 279.589541,262.366634 277.070136,262.756279 C272.862054,263.447298 268.521318,264.167722 256.656148,268.196216 C252.950504,269.551818 249.425943,271.356606 246.161737,273.569991 L245.749036,272.643731 C249.883421,270.504513 254.415768,267.137634 255.911811,263.175302 C256.761632,261.065182 256.565015,258.678982 255.381195,256.735593 L255.329607,256.735593 C255.137996,256.478299 254.59264,255.772577 253.678801,254.589024 L253.391384,254.816913 C254.319962,256.015169 254.865318,256.72089 255.04219,256.970834 L255.086408,256.970834 C256.191415,258.813461 256.368659,261.065627 255.565437,263.057681 C254.091503,266.917096 249.6697,270.210463 245.601642,272.320276 L245.063656,271.144073 C248.984321,269.100421 253.081858,265.998187 254.36418,262.601903 C255.03591,260.961489 254.885428,259.100179 253.958849,257.58834 L253.958849,257.58834 C253.723019,257.272235 253.221881,256.610622 252.418587,255.588796 L252.418587,255.588796 L252.109061,255.20653 L252.020625,255.272691 C251.387335,254.839235 250.636716,254.608457 249.868681,254.611077 C247.105055,254.611077 243.972945,257.419261 240.428133,260.675871 C238.666782,262.271096 236.853843,263.925131 234.922989,265.388032 C227.818627,270.783861 221.569146,273.893446 212.813978,278.024858 C190.402809,288.654787 160.504056,289.478129 151.866802,289.478129 L151.829954,289.478129 Z M244.569888,270.19576 C242.602186,265.961431 241.017707,262.844495 240.546048,261.954991 L241.054555,261.491862 C244.474083,258.382276 247.42932,255.699052 249.787615,255.699052 C250.418168,255.697159 251.030002,255.912714 251.519488,256.30922 C252.558611,257.639799 253.081858,258.338169 253.162924,258.455789 C253.76676,259.634536 253.823306,261.017817 253.317687,262.241691 C252.190128,265.321871 248.298942,268.255026 244.606737,270.19576 L244.569888,270.19576 Z M216.196656,287.030158 L213.573054,278.840848 C218.083292,276.708981 221.93763,274.827057 225.600356,272.754 L225.556138,272.790757 C225.725641,272.98189 227.103769,274.49625 229.019883,276.554605 C225.73496,277.986121 222.591593,279.721238 219.630923,281.737247 C217.92333,283.060591 216.723807,284.929356 216.233505,287.030158 L216.196656,287.030158 Z M227.656494,288.500411 C223.5,291.330648 221.023791,291.926101 219.69725,291.926101 C218.816569,292.001871 217.965978,291.586122 217.486349,290.845465 C217.425976,290.739501 217.374222,290.628877 217.331586,290.514658 L217.191562,290.073582 C216.697794,288.103443 217.523197,284.685104 220.294193,282.604696 C223.291676,280.572816 226.474754,278.827726 229.801068,277.392649 L230.722277,278.377718 C227.34453,279.815943 224.113905,281.576164 221.075378,283.633873 C218.392818,285.640769 217.943268,289.07381 218.606539,290.191202 C218.665496,290.301471 218.849738,290.639629 219.726729,290.639629 C220.603719,290.639629 222.873578,290.220607 226.956376,287.441829 C229.616827,285.626066 232.115145,283.876465 234.392373,282.244484 L235.291473,283.178095 C232.962657,284.824778 230.42749,286.618487 227.693343,288.478357 L227.656494,288.500411 Z M230.958107,278.657066 C231.960382,279.730351 233.028984,280.862446 234.104956,281.972487 C231.820358,283.597117 229.366258,285.339367 226.735285,287.118373 C222.726185,289.838341 220.618459,290.250012 219.711989,290.250012 C219.277179,290.250012 218.975022,290.161797 218.908695,289.985366 C218.304382,288.963541 218.761302,285.787794 221.281729,283.90587 C224.342471,281.836005 227.595092,280.063594 230.994955,278.612959 L230.958107,278.657066 Z M246.198585,289.926556 L248.048373,289.30905 L250.038184,293.543379 L246.198585,289.926556 Z M248.726382,284.633645 C249.161193,285.795145 248.188396,286.758161 247.569344,287.228642 C246.09541,288.353386 243.928727,288.772408 243.000148,288.118145 C239.985953,285.964224 228.887229,273.841988 227.111139,271.901254 C227.789148,271.504285 228.459788,271.092614 229.123059,270.673592 L241.813631,284.339595 L242.919082,285.001209 L230.965476,269.490039 C232.43941,268.497618 233.950193,267.446387 235.483084,266.284887 C236.765407,265.307168 237.996142,264.255938 239.16792,263.197355 C242.752858,270.156792 245.956018,277.30541 248.763231,284.611591 L248.726382,284.633645 Z M284.926204,262.837143 C282.412688,263.507207 279.86376,264.037316 277.291226,264.425017 C273.149471,265.116036 268.860322,265.829108 257.142546,269.806143 C253.482031,271.153983 250.001905,272.946488 246.780789,275.143162 C246.611287,274.746193 246.434415,274.341874 246.257543,273.952257 C249.513452,271.744518 253.027859,269.942328 256.722475,268.585833 C268.558166,264.572042 272.891532,263.851618 277.077505,263.160599 C279.607403,262.771993 282.114315,262.246832 284.5872,261.587428 C287.453994,260.854457 290.065834,259.354811 292.141112,257.250182 L291.9495,256.94878 C288.266091,258.139782 284.413114,258.72572 280.54125,258.683678 C277.032811,258.661593 273.535944,258.27977 270.105797,257.544232 C268.32209,257.147719 266.501714,256.938295 264.67435,256.919375 C260.746315,256.919375 258.660698,258.058821 258.041646,258.448438 L257.127807,257.514827 C257.555248,257.198723 259.913542,255.632903 264.652241,255.632903 C266.568538,255.650459 268.477778,255.867268 270.348996,256.279815 C273.693711,257.001881 277.104424,257.376344 280.526511,257.397207 C286.59912,257.397207 291.868434,256.125438 296.223909,253.618656 C293.974001,258.159402 289.869715,261.51126 284.963053,262.81509 L284.926204,262.837143 Z" id="e2e5sfoaykbz57"></path>
            <path d="M213.445966,129.498902 L182.663856,129.498902 C183.058648,124.499562 187.069456,120.543262 192.089816,120.201041 C192.289806,120.183059 192.473833,120.084717 192.599527,119.928657 C192.716152,119.769738 192.764041,119.570886 192.732495,119.376527 C191.747215,113.643576 189.899324,108.091654 187.251255,102.908345 C189.157131,102.393024 191.070394,99.9636539 192.71772,96.3858547 L192.71772,96.3858547 C193.109237,96.7097707 193.500755,97.0189632 193.884885,97.320794 L194.032627,97.4385816 L195.066823,98.2336481 L195.236727,98.3587975 C195.591308,98.6238196 195.975438,98.8814801 196.293084,99.0949701 L196.396504,99.1685874 C197.556281,100.007824 198.701284,100.766082 199.801964,101.435999 L199.979255,101.539063 C200.274739,101.723107 200.570224,101.892426 200.858322,102.061746 L201.109484,102.201619 C201.37542,102.356215 201.641356,102.496088 201.899905,102.635961 L202.165841,102.775833 C202.431777,102.915706 202.690326,103.048217 202.956262,103.173367 L203.177876,103.283793 L204.138201,103.725496 L204.138201,103.725496 C204.463234,103.865369 204.78088,103.99788 205.091139,104.115668 L205.283204,104.181923 L205.977593,104.432222 L206.26569,104.520563 L206.834498,104.682521 L207.144757,104.7635 L207.669242,104.873926 L207.964727,104.932819 L208.489212,105.006437 L208.7256,105.006437 C208.976761,105.006437 209.220536,105.006437 209.464311,105.006437 C210.329574,105.040937 211.18491,104.812433 211.916833,104.351243 C212.845638,103.642203 213.424081,102.56973 213.505063,101.406552 C213.549152,101.084399 213.57382,100.7599 213.578934,100.434804 C213.578934,100.375911 213.578934,100.309655 213.578934,100.243399 C213.578934,99.9194835 213.578934,99.5734824 213.578934,99.2201195 L213.578934,99.0139911 C213.578934,98.6459048 213.51245,98.2778185 213.445966,97.8802852 L213.445966,97.8802852 C213.379482,97.482752 213.298224,97.0631336 213.209579,96.6361534 C213.209579,96.5625361 213.209579,96.4889189 213.157869,96.4153016 C213.061836,95.9883214 212.95103,95.5613413 212.832836,95.1196377 C212.832836,95.0533822 212.832836,94.9871266 212.773739,94.9208711 C212.507803,93.9859318 212.18277,93.0141839 211.79864,91.9761804 C211.79864,91.9099248 211.74693,91.8436693 211.724768,91.7847755 C211.525316,91.2768163 211.318477,90.7541337 211.096864,90.2314511 C211.082758,90.1908961 211.065468,90.1515116 211.045154,90.1136635 C210.577303,89.0192201 210.05528,87.890422 209.479085,86.7272692 L209.419988,86.6168433 C208.526147,84.8279437 207.491951,82.93598 206.354335,81.0881865 C206.354335,81.0881865 206.354335,81.0881865 206.354335,81.0881865 C205.194558,79.1814993 203.923975,77.2453652 202.557358,75.3092311 C203.687587,74.1239931 204.721783,72.9534785 205.645172,71.8197726 C205.289192,71.7092561 204.949032,71.5533694 204.633138,71.3559838 C203.813168,72.3571786 202.904553,73.3804587 201.922066,74.4184621 C201.272,73.5203315 200.60716,72.6222008 199.912771,71.7314319 L199.816738,71.5989208 C199.122349,70.7007901 198.408262,69.8100212 197.674475,68.926614 L197.556281,68.7793795 C197.474437,66.1604916 197.227715,63.5493062 196.817569,60.9612257 C201.249839,58.9367508 205.046816,57.8913856 207.506726,57.8913856 C208.424612,57.7964716 209.343623,58.0604057 210.070055,58.6275583 C210.478599,59.1511876 210.649901,59.8207028 210.54283,60.4753517 C210.356083,61.8833202 209.912979,63.2454841 209.235311,64.4948545 C209.53674,64.7017558 209.807747,64.9495324 210.040506,65.2310272 C210.85575,63.7787654 211.384811,62.1845437 211.599187,60.5342455 C211.746283,59.5838319 211.477313,58.6161874 210.860476,57.8766622 C210.188248,57.1404895 209.072794,56.8092118 207.528887,56.8092118 C205.002493,56.8092118 201.139032,57.8472153 196.655053,59.8716901 C195.428792,53.2019657 193.109237,48.6229717 190.272585,48.4094816 L190.073133,48.4094816 C187.923482,48.4094816 185.714735,50.956639 183.838408,55.0350357 L183.838408,55.0350357 L182.612146,54.0485643 C182.595076,54.0519367 182.577507,54.0519367 182.560437,54.0485643 C182.168919,53.7393717 181.777402,53.4449027 181.385885,53.1504336 L181.267691,53.0620929 C180.920497,52.7970707 180.573303,52.546772 180.226108,52.3259202 L180.004495,52.1639622 L178.726524,51.3468106 C178.581483,51.6817198 178.392712,51.9960817 178.165103,52.2817499 L179.361816,53.1062632 L179.612978,53.2903064 C179.945398,53.5258817 180.285205,53.7688187 180.625012,54.0264791 L180.846626,54.1957988 L181.947306,55.0350357 L182.087661,55.1454616 C182.50134,55.4693775 182.915018,55.8006552 183.336084,56.1466564 L183.336084,56.1466564 C181.459744,60.8737926 180.203408,65.8224815 179.598203,70.8701098 C177.832683,72.3424552 176.207517,73.8663326 174.744868,75.3534014 C173.794393,73.9988437 172.905477,72.6663712 172.07812,71.3559838 C172.07812,71.3559838 172.02641,71.2750048 171.996861,71.2308345 C171.597957,70.5903642 171.20644,69.9572557 170.829697,69.331509 L170.829697,69.331509 C170.076211,68.065292 169.384285,66.8383375 168.753918,65.6506456 C168.732207,65.60255 168.707536,65.5558369 168.680047,65.5107728 C168.377175,64.9291964 168.089077,64.3549817 167.815754,63.7954905 C167.80032,63.7674386 167.787938,63.7378238 167.778819,63.7071497 C167.224785,62.5808056 166.737235,61.4986317 166.301395,60.4385431 C166.27994,60.378383 166.255281,60.3194053 166.227524,60.2618616 C166.028072,59.7612642 165.836007,59.2753902 165.658716,58.7895163 C165.644784,58.7393469 165.62751,58.6901595 165.607007,58.6422817 C165.259812,57.6778955 164.964328,56.7650414 164.72794,55.9037194 C164.72794,55.8374639 164.72794,55.7712083 164.67623,55.7049528 C164.565423,55.3000578 164.469391,54.9098863 164.388133,54.5270765 C164.388133,54.4681827 164.388133,54.4092889 164.351197,54.3503951 C164.269939,53.9675853 164.203455,53.6142224 164.144358,53.2387743 L164.144358,53.2387743 C164.092648,52.8854114 164.055712,52.546772 164.026164,52.222856 C164.03014,52.1664858 164.03014,52.1099065 164.026164,52.0535363 C164.026164,51.7443438 164.026164,51.4498747 164.026164,51.1774908 C164.022308,51.1260302 164.022308,51.0743553 164.026164,51.0228946 C164.029784,50.7544831 164.049518,50.486528 164.085261,50.2204664 C164.132799,49.3567687 164.546368,48.5538841 165.222877,48.0119484 C165.776108,47.6714876 166.420318,47.5071363 167.069655,47.5407978 C168.416878,47.6021262 169.742488,47.9012331 170.984827,48.424205 C171.108391,48.0822919 171.272041,47.7561166 171.472376,47.4524571 C170.066431,46.8629823 168.564488,46.5336901 167.040107,46.4807092 C166.177125,46.4458404 165.324037,46.6744323 164.594972,47.1359029 C163.664671,47.8436725 163.085836,48.9168732 163.006742,50.0805936 C162.962419,50.3897861 162.940258,50.7137021 162.925484,51.0523415 C162.929169,51.1160904 162.929169,51.1799975 162.925484,51.2437464 C162.925484,51.5750241 162.925484,51.9136635 162.925484,52.2743881 C162.921817,52.3405936 162.921817,52.4069493 162.925484,52.4731548 C162.925484,52.8412411 162.999355,53.2093274 163.058452,53.6142224 L163.058452,53.6142224 C163.124936,54.0191174 163.206194,54.4313741 163.294839,54.8583542 C163.294839,54.9319715 163.331775,55.0055887 163.346549,55.079206 C163.442582,55.5061862 163.553389,55.9331663 163.671582,56.3748699 C163.694663,56.4400801 163.714387,56.5064218 163.730679,56.5736365 C163.996615,57.5085758 164.329036,58.4803238 164.705779,59.5183272 L164.787037,59.7170939 C164.979102,60.2078756 165.185941,60.7231965 165.407555,61.2630565 L165.459264,61.3808441 C165.927115,62.4752875 166.449138,63.6016317 167.025333,64.7598767 L167.091817,64.885026 C167.379914,65.4666024 167.690173,66.0555406 168.007819,66.6518404 L168.007819,66.6518404 C168.665272,67.8738871 169.381823,69.1180189 170.142696,70.3768742 C170.142696,70.3768742 170.142696,70.3768742 170.142696,70.435768 C171.295086,72.3277317 172.550895,74.2491424 173.917512,76.1779148 L173.917512,76.1779148 C171.934819,78.2399728 170.119288,80.4554314 168.487982,82.8034689 C162.71824,79.416108 156.168875,77.5701285 149.473546,77.4441318 L149.473546,38.5521295 C149.473546,38.2471965 149.225497,38 148.919513,38 C148.613528,38 148.365479,38.2471965 148.365479,38.5521295 L148.365479,77.4220466 C146.223507,77.4529158 144.088159,77.6671943 141.983011,78.0625169 L142.921175,57.8030449 C142.925219,57.7063788 142.88758,57.6126051 142.817755,57.5453845 C142.752216,57.4722604 142.657541,57.4318247 142.559206,57.4349586 L141.081783,57.4349586 L141.214751,54.4902679 C141.222483,54.3798648 141.175593,54.2726633 141.08917,54.2031605 C141.005087,54.1275549 140.888163,54.0998115 140.778912,54.1295433 C137.462097,54.8657159 134.647606,53.9970322 131.323404,52.789709 C119.651761,48.5567161 114.672846,53.437541 113.453971,54.998227 C112.242485,53.4669879 107.263569,48.586163 95.5919263,52.789709 C92.2603372,53.9970322 89.4458462,54.8657159 86.1290314,54.1295433 C86.0197619,54.1011881 85.9034961,54.1287754 85.8187725,54.2031605 C85.7352309,54.2748166 85.6890038,54.3805023 85.6931916,54.4902679 L85.8335468,57.4349586 L84.3561237,57.4349586 C84.2581676,57.4337682 84.1642655,57.4738741 84.0975746,57.5453845 C84.0296346,57.6133604 83.9946027,57.707352 84.0006764,57.8030449 L85.9221922,99.367354 C85.9262122,99.5596298 86.0837927,99.7133971 86.2767737,99.7133552 L112.449324,99.7133552 C108.830738,105.768503 106.364029,112.436923 105.173015,119.383889 C105.147953,119.578257 105.201688,119.774561 105.322318,119.929322 C105.442948,120.084082 105.620518,120.184525 105.815694,120.208402 C110.83893,120.547131 114.853791,124.504329 115.249041,129.506263 L84.5629629,129.506263 C84.2569783,129.506263 84.0089293,129.75346 84.0089293,130.058393 C84.0089293,130.363326 84.2569783,130.610522 84.5629629,130.610522 L115.345073,130.610522 C114.943293,135.608164 110.931,139.559699 105.911727,139.901021 C105.715519,139.919063 105.534676,140.014474 105.409403,140.166044 C105.288212,140.325757 105.237533,140.527776 105.269048,140.725535 C109.479703,164.827828 127.585523,182.378185 148.454125,182.687377 L148.454125,228.44787 C148.454125,228.752804 148.702174,229 149.008158,229 C149.314143,229 149.562192,228.752804 149.562192,228.44787 L149.562192,182.672654 C153.404205,182.618023 157.215411,181.98004 160.864478,180.78069 L160.864478,198.883176 C160.868403,199.07669 161.024879,199.232628 161.21906,199.236539 L181.075626,199.236539 L181.075626,203.653575 L168.790853,203.653575 C168.751772,203.646539 168.711741,203.646539 168.67266,203.653575 L168.67266,203.653575 C168.642988,203.666322 168.615556,203.68372 168.591401,203.705107 L168.591401,203.705107 L163.738066,208.740528 C163.672742,208.804711 163.635561,208.89205 163.634647,208.983465 L163.634647,211.427558 C163.634647,211.523228 163.672783,211.61498 163.740665,211.682629 C163.808548,211.750278 163.900615,211.788283 163.996615,211.788283 L209.117117,211.788283 C209.314135,211.784275 209.47174,211.623941 209.471698,211.427558 L209.471698,208.983465 C209.470355,208.882727 209.427636,208.786942 209.353504,208.718443 L203.776232,203.683022 L203.724522,203.683022 L203.665425,203.646213 L203.584167,203.646213 L191.986396,203.646213 L191.986396,199.229177 L211.835575,199.229177 C211.929616,199.229177 212.019805,199.191948 212.086302,199.125679 C212.152799,199.059411 212.190157,198.969532 212.190157,198.875814 L212.190157,163.613143 C212.192143,163.518156 212.155664,163.426375 212.08895,163.358505 C212.022237,163.290636 211.93091,163.252398 211.835575,163.252419 L183.668504,163.252419 C188.299694,156.484986 191.402251,148.796696 192.762043,140.718173 C192.800824,140.521735 192.752335,140.318186 192.629096,140.160079 C192.505857,140.001971 192.319947,139.904803 192.119364,139.89366 C187.08402,139.557469 183.060015,135.588055 182.671243,130.573714 L213.445966,130.573714 C213.751951,130.573714 214,130.326517 214,130.021584 C214,129.716651 213.751951,129.469455 213.445966,129.469455 L213.445966,129.498902 Z M186.852351,102.105916 C185.272271,99.1390087 183.412164,96.328858 181.29724,93.7135479 C181.105175,92.9111197 180.920497,92.0571594 180.75798,91.1663904 C182.0655,90.5480054 183.417342,89.8560031 184.798733,89.0830218 L184.798733,89.0830218 C185.389702,89.6866834 185.973284,90.2756215 186.564253,90.8498362 C186.585039,90.8630696 186.602684,90.8806539 186.615963,90.9013683 C188.418419,92.6534592 190.220875,94.2877626 192.008557,95.7748314 C190.346456,99.4998651 188.477516,101.811447 186.852351,102.105916 Z M179.960172,83.7752168 L179.960172,83.7752168 C181.289853,85.3285411 182.649082,86.8376951 184.023085,88.2732318 L184.023085,88.2732318 C182.836222,88.9259716 181.68137,89.5222715 180.558528,90.0621314 C180.240696,87.9790256 180.036021,85.8803291 179.945398,83.7752168 L179.960172,83.7752168 Z M180.063592,92.255926 L179.568655,91.7111582 L179.923236,91.556562 C179.952785,91.7994989 180.004495,92.0277125 180.048817,92.2927346 L180.063592,92.255926 Z M192.466558,94.7736365 C191.373265,93.8534207 190.250424,92.8816728 189.142356,91.8289458 L189.142356,91.8289458 C188.019515,90.7933963 186.891749,89.696499 185.759058,88.538254 C188.852869,86.7338786 191.815072,84.7142043 194.623596,82.4942764 L195.886793,81.4783581 C195.275763,86.0303552 194.122631,90.4935779 192.451784,94.7736365 L192.466558,94.7736365 Z M197.364216,76.3693197 C197.504571,74.4037387 197.563668,72.4676045 197.548894,70.5830025 C198.191573,71.3707073 198.804703,72.158412 199.410447,72.9461168 C200.01619,73.7338215 200.584998,74.5141646 201.146419,75.2871459 C199.912771,76.5460012 198.568316,77.8269416 197.113054,79.1005203 C197.194312,78.1876662 197.282958,77.2821738 197.349442,76.361958 L197.364216,76.3693197 Z M196.920989,80.6538447 C198.693897,79.1814993 200.311675,77.6502602 201.774324,76.1705531 C202.727262,77.5251108 203.621103,78.8649451 204.44846,80.1753324 C204.470911,80.2080457 204.490673,80.2425126 204.507557,80.2783966 C205.741205,82.2292542 206.834498,84.121218 207.780049,85.9322027 C207.795267,85.9735432 207.81509,86.0130529 207.839146,86.0499904 C208.149405,86.6389285 208.437502,87.2205049 208.718212,87.7947196 L208.718212,87.8462517 C209.274708,88.9897732 209.767183,90.0915783 210.195636,91.151667 L210.254732,91.3062632 C210.461572,91.8068607 210.653637,92.3074581 210.830927,92.7786086 L210.87525,92.8963962 C211.229832,93.8779598 211.525316,94.7981756 211.761704,95.6570437 C211.761704,95.7232993 211.761704,95.7821931 211.813414,95.8410869 C211.926683,96.2533436 212.022715,96.6508769 212.101511,97.0336866 C212.101511,97.0852187 212.101511,97.1441125 212.101511,97.1956446 C212.18277,97.5858161 212.256641,97.9686259 212.308351,98.3219888 L212.308351,98.3219888 C212.36006,98.6753517 212.396996,99.0139911 212.426544,99.3379071 C212.422886,99.3967442 212.422886,99.4557514 212.426544,99.5145886 C212.426544,99.8237811 212.426544,100.110888 212.426544,100.390634 L212.426544,100.54523 C212.426544,100.824976 212.426544,101.09736 212.36006,101.347659 C212.312527,102.209684 211.902102,103.011673 211.229832,103.556177 C210.673942,103.89679 210.027344,104.061093 209.375666,104.027327 C209.168331,104.025636 208.96122,104.01335 208.755148,103.990518 L208.555696,103.990518 L208.075533,103.916901 L207.839146,103.872731 L207.329435,103.762305 L207.100434,103.696049 C206.886208,103.644517 206.664594,103.578262 206.442981,103.504644 L206.324787,103.504644 C206.044077,103.416304 205.755979,103.31324 205.467882,103.202814 L205.39401,103.202814 C205.128074,103.099749 204.854751,102.989324 204.581428,102.864174 L204.39675,102.783195 L203.658038,102.429832 L203.47336,102.341492 L202.572132,101.892426 L202.513035,101.892426 C201.478839,101.347659 200.378159,100.699827 199.233156,99.9636539 L199.233156,99.9636539 C197.119545,98.5887351 195.084899,97.0968746 193.138786,95.4950858 C195.035718,90.7294057 196.302165,85.7379459 196.906215,80.6464829 L196.920989,80.6538447 Z M196.588569,67.7634612 C195.938503,67.0272885 195.281049,66.2911158 194.616209,65.5549431 L194.520177,65.451879 C193.855336,64.7157063 193.190496,63.9795336 192.518268,63.294893 L192.518268,63.294893 C193.710056,62.6421533 194.864909,62.0458534 195.982825,61.5059934 C196.288459,63.5777372 196.485716,65.6639262 196.573795,67.7560994 L196.588569,67.7634612 Z M190.036197,49.3591443 L190.169166,49.3591443 C192.429623,49.5284641 194.601435,53.7761804 195.783373,60.3281172 C194.475854,60.9391405 193.124012,61.6311428 191.742621,62.4041241 C191.203362,61.8519946 190.656715,61.3145886 190.110069,60.7771825 L189.777648,60.4532665 C189.231002,59.9232222 188.684355,59.3931779 188.130322,58.8852187 L188.130322,58.8852187 C187.583675,58.3846213 187.044416,57.8913856 186.497769,57.4128734 L186.157962,57.1184043 C185.611315,56.6276225 185.064669,56.156472 184.518022,55.7049528 C186.283543,51.8032376 188.329774,49.3885913 190.021423,49.3885913 L190.036197,49.3591443 Z M184.074795,56.7208711 C184.614055,57.1699364 185.160701,57.6410869 185.699961,58.1195992 L185.744283,58.1564078 C186.298317,58.6422817 186.844964,59.1428792 187.406384,59.6287531 L187.406384,59.6287531 C187.908708,60.0925419 188.418419,60.5710542 188.883807,61.1010985 L189.194066,61.4029293 C189.711164,61.9035267 190.228262,62.4188476 190.752748,62.9488919 C187.644404,64.7498574 184.667396,66.7670677 181.843886,68.9855078 C181.415434,69.3241472 181.001755,69.6701484 180.588077,70.0087878 C181.212111,65.4697974 182.377673,61.0212826 184.060021,56.7576797 L184.074795,56.7208711 Z M180.070979,75.1988052 C180.159624,73.9571273 180.277818,72.7301728 180.42556,71.5179418 C181.112562,70.9363654 181.814338,70.354789 182.545662,69.7805743 C185.39768,67.5431895 188.404288,65.5087733 191.543169,63.6924263 C191.964235,64.1267682 192.3853,64.5758335 192.806366,65.0248988 L192.806366,65.0248988 C193.212657,65.4592407 193.611561,65.9009443 194.017853,66.3500096 L194.099111,66.4457121 C194.490628,66.880054 194.882145,67.3291193 195.273662,67.7855463 L195.369695,67.8959722 C195.79076,68.3744845 196.204439,68.8677202 196.618117,69.3683176 C196.669827,71.540027 196.618117,73.7853536 196.448214,76.1852765 C196.359568,77.4294084 196.233987,78.6367315 196.093632,79.8219696 C195.399243,80.403546 194.697467,80.9851224 193.966143,81.5593371 C191.118417,83.8047705 188.111398,85.8419251 184.968636,87.6548468 L184.968636,87.6548468 L183.794085,86.4033532 L183.579859,86.1751397 L182.560437,85.0487955 L182.316662,84.7837734 L181.289853,83.6132588 L181.090401,83.3850453 L179.974946,82.0672962 C179.950183,82.031184 179.923037,81.9967532 179.893688,81.964232 C179.834591,79.8808634 179.886301,77.5692812 180.056204,75.2356138 L180.070979,75.1988052 Z M179.4283,72.4087107 C179.332267,73.3068414 179.251009,74.2196955 179.184525,75.1325496 C179.04417,77.0981307 178.985073,79.0342648 178.99246,80.9188668 L178.99246,80.9188668 C178.364555,80.1385238 177.751424,79.3581808 177.160455,78.5851995 L177.160455,78.5410291 C176.562099,77.8048564 175.993291,76.9950665 175.439257,76.2220852 C176.613809,74.9926768 177.987812,73.7190981 179.413525,72.4160725 L179.4283,72.4087107 Z M174.656223,76.9950665 L174.656223,76.9950665 C175.306289,77.8858354 175.97113,78.7839661 176.658131,79.6673733 L176.776325,79.8219696 C177.463327,80.7127385 178.179877,81.6035074 178.903814,82.4869146 L179.029395,82.6341492 C179.107571,85.2532645 179.354315,87.864681 179.768107,90.4523029 C179.450461,90.5995375 179.147589,90.7246868 178.83733,90.8571979 C176.084808,87.9336008 172.957776,85.3841376 169.536952,83.2746194 C171.078002,81.0683673 172.784372,78.9814945 174.641449,77.0318751 L174.656223,76.9950665 Z M141.14088,58.1416843 L142.271109,58.1416843 L141.347719,78.1876662 C140.956202,78.2686452 140.609008,78.3643477 140.187942,78.4600501 L141.14088,58.1416843 Z M113.911973,55.6902293 C114.406909,54.9540567 118.846566,48.991058 131.168274,53.4817113 C134.462928,54.674311 137.270032,55.5429948 140.572072,54.9540567 L140.439104,57.8030449 L140.313523,60.2324147 L139.449231,78.6367315 C131.167559,80.909033 123.753106,85.5889703 118.152177,92.0792446 C116.528021,92.7413111 115.084869,93.7783237 113.941521,95.1049142 L113.911973,55.6902293 Z M113.911973,95.6644055 C114.911938,94.4251537 116.17283,93.419907 117.60553,92.7197148 C117.081045,93.3307381 116.563947,93.9638466 116.06901,94.6043168 C115.329931,94.9791031 114.612279,95.394451 113.91936,95.8484486 L113.911973,95.6644055 Z M113.911973,96.1870881 C114.155747,96.0251301 114.761491,95.6349586 115.581461,95.1858932 C115.359847,95.4803623 115.145621,95.7821931 114.924007,96.0840239 L113.911973,96.4226633 L113.911973,96.1870881 Z M113.911973,96.7024089 L114.650684,96.4521102 L114.310877,96.9306225 L113.897198,96.9821546 L113.911973,96.7024089 Z M113.911973,97.2030064 L114.155747,97.2030064 C114.137916,97.2313048 114.118171,97.2583599 114.096651,97.2839854 L113.911973,97.2839854 L113.911973,97.2030064 Z M95.9317336,53.4596261 C108.364249,48.9468876 112.678324,54.8804394 113.195422,55.6681442 L113.195422,94.9429563 C112.176001,93.8018886 109.64222,91.475583 106.007759,91.475583 L105.941275,91.475583 C103.223485,91.5077081 100.528071,91.9698949 97.9558032,92.8448641 C95.0888815,93.7872697 92.1067532,94.3370677 89.0912647,94.4791675 L89.0912647,94.8325304 C92.1440714,94.6895406 95.1633406,94.1348146 98.06661,93.1835036 C100.605552,92.3194467 103.265965,91.8622451 105.948662,91.8289458 L106.015146,91.8289458 C109.900769,91.8289458 112.478872,94.6043168 113.20281,95.5098092 L113.20281,95.7453845 C112.013484,95.0092118 108.681895,93.0068221 105.727049,93.0068221 L105.675339,93.0068221 C102.881366,93.1218116 100.102956,93.481468 97.3722211,94.0816342 C94.5535062,94.6678206 91.6978896,95.0613623 88.8253285,95.2595105 L88.8253285,95.568703 C91.7127643,95.3686216 94.5831558,94.972624 97.4165438,94.383465 C100.130735,93.7897926 102.891619,93.4326281 105.667952,93.3160146 L105.712274,93.3160146 C108.704056,93.3160146 112.212936,95.4730006 113.188035,96.1134708 L113.188035,96.3932164 C111.84358,95.9367894 107.492569,94.5233378 105.424177,94.5233378 L105.424177,94.5233378 C103.518301,94.5233378 99.8395177,94.9282328 96.278928,95.3110426 C93.272372,95.6275968 90.4283326,95.9294276 88.5889408,96.0472153 L88.5889408,96.3122374 C90.4431068,96.216535 93.2871463,95.9147042 96.3010894,95.5760648 C99.8542919,95.2006167 103.525688,94.8398921 105.41679,94.7957217 L105.41679,94.7957217 C107.463021,94.7957217 111.961774,96.2680671 113.180648,96.6803238 L113.180648,96.996878 C111.703225,96.7907497 106.221985,96.0398535 105.128692,96.0398535 L105.128692,96.0398535 C103.429656,96.0398535 90.9306564,96.6656003 88.5150697,96.7760262 L86.5279356,54.9393332 C89.8373634,55.5282713 92.6444672,54.6522259 95.9317336,53.4596261 Z M113.195422,97.1882829 L113.195422,97.2545384 L88.5224568,97.0116015 L88.5224568,97.0116015 C90.9380436,96.8938138 103.437043,96.2754288 105.128692,96.2754288 L105.128692,96.2754288 C106.214598,96.2312584 111.754935,96.9895163 113.195422,97.1882829 Z M86.7200006,98.9845442 L84.8288991,58.1416843 L85.9591277,58.1416843 L87.8206808,97.3870495 C87.8355467,97.5732313 87.9879754,97.7188065 88.1752624,97.725689 L113.550004,97.9686259 L113.631262,97.9686259 C113.409649,98.3072654 113.188035,98.6459048 112.973809,98.9845442 L86.7200006,98.9845442 Z M203.34778,204.338215 L208.703438,209.17487 L208.703438,211.103642 L164.299487,211.103642 L164.299487,209.160146 L168.945983,204.338215 L203.34778,204.338215 Z M181.792177,203.602043 L181.792177,199.185007 L191.218136,199.185007 L191.218136,203.602043 L181.792177,203.602043 Z M211.421897,163.951783 L211.421897,198.522451 L161.581029,198.522451 L161.581029,180.530391 C162.120288,180.346348 162.659548,180.147581 163.19142,179.934091 L163.19142,195.025631 C163.19142,195.119349 163.228777,195.209228 163.295275,195.275496 C163.361771,195.341765 163.45196,195.378994 163.546001,195.378994 L209.464311,195.378994 C209.658493,195.375083 209.814969,195.219145 209.818893,195.025631 L209.818893,165.910002 C209.818893,165.816284 209.781535,165.726405 209.715038,165.660137 C209.648541,165.593868 209.558352,165.556639 209.464311,165.556639 L181.91037,165.556639 C182.316662,165.033956 182.715566,164.49655 183.107083,163.951783 L211.421897,163.951783 Z M173.791931,177.526807 C181.112562,171.269339 197.859153,168.147967 200.806612,167.912392 L179.960172,167.912392 C180.440334,167.374986 180.905723,166.822856 181.356337,166.263365 L209.10973,166.263365 L209.10973,194.650183 L163.900583,194.650183 L163.900583,179.646984 C164.447229,179.41877 164.986489,179.175833 165.525748,178.910811 L165.525748,192.780304 C166.26361,186.848692 169.21462,181.41111 173.791931,177.548892 L173.791931,177.526807 Z M191.210749,141.189324 C186.844964,164.45238 169.197145,181.259202 149.008158,181.259202 C128.819172,181.259202 111.163966,164.45238 106.79818,141.189324 C112.491843,140.536744 116.789471,135.733081 116.789471,130.021584 C116.789471,124.310087 112.491843,119.506424 106.79818,118.853845 C111.163966,95.5907882 128.811785,78.7913278 149.008158,78.7913278 C169.204532,78.7913278 186.844964,95.5907882 191.210749,118.853845 C185.517086,119.506424 181.219458,124.310087 181.219458,130.021584 C181.219458,135.733081 185.517086,140.536744 191.210749,141.189324 Z" id="e2e5sfoaykbz58"></path>
        </g>
    </g>
</svg>
